<?xml version="1.0" encoding="utf-8"?>
<!-- Generator: Adobe Illustrator 16.0.0, SVG Export Plug-In . SVG Version: 6.00 Build 0)  -->
<!DOCTYPE svg PUBLIC "-//W3C//DTD SVG 1.1//EN" "http://www.w3.org/Graphics/SVG/1.1/DTD/svg11.dtd">
<svg version="1.1" id="Layer_1" xmlns="http://www.w3.org/2000/svg" xmlns:xlink="http://www.w3.org/1999/xlink" x="0px" y="0px"
	 width="24px" height="24px" viewBox="0 0 24 24" enable-background="new 0 0 24 24" xml:space="preserve">
<g>
	<path d="M12,1.5c5.8,0,10.5,4.7,10.5,10.5c0,5.8-4.7,10.5-10.5,10.5S1.5,17.8,1.5,12C1.5,6.2,6.2,1.5,12,1.5 M12,0
		C5.4,0,0,5.4,0,12c0,6.6,5.4,12,12,12c6.6,0,12-5.4,12-12C24,5.4,18.6,0,12,0L12,0z"/>
</g>
<line fill="none" stroke="#000000" stroke-width="1.8219" stroke-linecap="round" x1="16.7" y1="12" x2="7.3" y2="12"/>
<line fill="none" stroke="#000000" stroke-width="1.8219" stroke-linecap="round" x1="12" y1="16.7" x2="12" y2="7.3"/>
</svg>
