<?xml version="1.0" encoding="utf-8"?>
<!-- Generator: Adobe Illustrator 16.0.0, SVG Export Plug-In . SVG Version: 6.00 Build 0)  -->
<!DOCTYPE svg PUBLIC "-//W3C//DTD SVG 1.1//EN" "http://www.w3.org/Graphics/SVG/1.1/DTD/svg11.dtd">
<svg version="1.1" id="Layer_1" xmlns="http://www.w3.org/2000/svg" xmlns:xlink="http://www.w3.org/1999/xlink" x="0px" y="0px"
	 width="1085.5px" height="500px" viewBox="0 0 1085.5 500" enable-background="new 0 0 1085.5 500" xml:space="preserve">
<g>
	<path fill="#FEDA1F" stroke="#000000" stroke-width="3" stroke-miterlimit="10" d="M-38.9,251.4c0,9.2-7.3,16.7-16.4,16.7h-146
		c-9,0-16.4-7.5-16.4-16.7l0,0c0-9.2,7.3-16.7,16.4-16.7h146C-46.2,234.6-38.9,242.1-38.9,251.4L-38.9,251.4z"/>
	<path fill="#FEDA1F" stroke="#000000" stroke-width="3" stroke-miterlimit="10" d="M-120.6,333.7h-22.7c5.5-9.7,8.7-20.8,8.7-32.8
		c0-36.6-29.7-66.2-66.2-66.2s-66.2,29.7-66.2,66.2s29.7,66.2,66.2,66.2h80.2c9.2,0,16.7-7.5,16.7-16.7S-111.4,333.7-120.6,333.7z"
		/>
	<path fill="#FEDA1F" stroke="#000000" stroke-width="3" stroke-miterlimit="10" d="M-170.5,284.4c0,9.1,7.4,16.5,16.5,16.5
		s16.5-7.4,16.5-16.5c0-2.4-0.5-4.6-1.4-6.7"/>
	<path fill="#FEDA1F" stroke="#000000" stroke-width="3" stroke-miterlimit="10" d="M-169.5,290.2c-4.3-12.9-16.5-22.3-30.9-22.3
		c-18,0-32.5,14.6-32.5,32.5"/>
	<path fill="#FEDA1F" stroke="#000000" stroke-width="3" stroke-miterlimit="10" d="M-103.9,284.5c0,9-7.3,16.4-16.4,16.4h-33.9
		c-9,0-16.4-7.3-16.4-16.4l0,0c0-9,7.3-16.4,16.4-16.4h33.9C-111.2,268.1-103.9,275.5-103.9,284.5L-103.9,284.5z"/>
	<path fill="#FEDA1F" stroke="#000000" stroke-width="3" stroke-miterlimit="10" d="M-103.9,317.3c0,9-7.3,16.4-16.4,16.4h-33.9
		c-9,0-16.4-7.3-16.4-16.4l0,0c0-9,7.3-16.4,16.4-16.4h33.9C-111.2,300.9-103.9,308.2-103.9,317.3L-103.9,317.3z"/>
	<path fill="#FEDA1F" stroke="#000000" stroke-width="3" stroke-miterlimit="10" d="M-103.9,350.8c0,9-7.3,16.4-16.4,16.4h-33.9
		c-9,0-16.4-7.3-16.4-16.4l0,0c0-9,7.3-16.4,16.4-16.4h33.9C-111.2,334.4-103.9,341.7-103.9,350.8L-103.9,350.8z"/>
	<circle fill="#FEDA1F" stroke="#000000" stroke-width="3" stroke-miterlimit="10" cx="-154" cy="284.5" r="16.5"/>
	<path fill="#FEDA1F" d="M-172,281.6c0,0,2.3,3.4,3.6,7.2c0.7,2.1,28.6-9.1,28.6-9.1s-2.1-7.3-6.1-13s-16.1-3.8-16.1-3.8l-8.4,5.2
		l-3.4,7.3L-172,281.6z"/>
	<path fill="#FEDA1F" stroke="#000000" stroke-width="3" stroke-miterlimit="10" d="M-147.2,262c0,0,9.7,14,9.7,22.1"/>
</g>
<g>
	<rect x="1.5" y="287.4" fill="#EA5C5A" width="1082.5" height="13.5"/>
	<path d="M1082.5,288.9v10.5H3v-10.5H1082.5 M1085.5,285.9H0v16.5h1085.5V285.9L1085.5,285.9z"/>
</g>
<g>
	<rect x="1.5" y="238.2" fill="#4A494A" width="8.7" height="47.7"/>
	<path d="M8.7,239.7v44.7H3v-44.7H8.7 M11.7,236.7H0v50.7h11.7V236.7L11.7,236.7z"/>
</g>
<g>
	<rect x="34" y="238.2" fill="#4A494A" width="8.7" height="47.7"/>
	<path d="M41.2,239.7v44.7h-5.7v-44.7H41.2 M44.2,236.7H32.5v50.7h11.7V236.7L44.2,236.7z"/>
</g>
<g>
	<rect x="66.6" y="238.2" fill="#4A494A" width="8.7" height="47.7"/>
	<path d="M73.7,239.7v44.7h-5.7v-44.7H73.7 M76.7,236.7H65.1v50.7h11.7V236.7L76.7,236.7z"/>
</g>
<g>
	<rect x="99.1" y="238.2" fill="#4A494A" width="8.7" height="47.7"/>
	<path d="M106.3,239.7v44.7h-5.7v-44.7H106.3 M109.3,236.7H97.6v50.7h11.7V236.7L109.3,236.7z"/>
</g>
<g>
	<rect x="684.9" y="238.2" fill="#4A494A" width="8.7" height="47.7"/>
	<path d="M692,239.7v44.7h-5.7v-44.7H692 M695,236.7h-11.7v50.7H695V236.7L695,236.7z"/>
</g>
<g>
	<rect x="1042.8" y="238.2" fill="#4A494A" width="8.7" height="47.7"/>
	<path d="M1050,239.7v44.7h-5.7v-44.7H1050 M1053,236.7h-11.7v50.7h11.7V236.7L1053,236.7z"/>
</g>
<g>
	<rect x="652.3" y="238.2" fill="#4A494A" width="8.7" height="47.7"/>
	<path d="M659.5,239.7v44.7h-5.7v-44.7H659.5 M662.5,236.7h-11.7v50.7h11.7V236.7L662.5,236.7z"/>
</g>
<g>
	<rect x="619.8" y="238.2" fill="#4A494A" width="8.7" height="47.7"/>
	<path d="M627,239.7v44.7h-5.7v-44.7H627 M630,236.7h-11.7v50.7H630V236.7L630,236.7z"/>
</g>
<g>
	<rect x="587.2" y="238.2" fill="#4A494A" width="8.7" height="47.7"/>
	<path d="M594.4,239.7v44.7h-5.7v-44.7H594.4 M597.4,236.7h-11.7v50.7h11.7V236.7L597.4,236.7z"/>
</g>
<g>
	<rect x="554.7" y="238.2" fill="#4A494A" width="8.7" height="47.7"/>
	<path d="M561.9,239.7v44.7h-5.7v-44.7H561.9 M564.9,236.7h-11.7v50.7h11.7V236.7L564.9,236.7z"/>
</g>
<g>
	<rect x="522.2" y="238.2" fill="#4A494A" width="8.7" height="47.7"/>
	<path d="M529.3,239.7v44.7h-5.7v-44.7H529.3 M532.3,236.7h-11.7v50.7h11.7V236.7L532.3,236.7z"/>
</g>
<g>
	<rect x="489.6" y="238.2" fill="#4A494A" width="8.7" height="47.7"/>
	<path d="M496.8,239.7v44.7h-5.7v-44.7H496.8 M499.8,236.7h-11.7v50.7h11.7V236.7L499.8,236.7z"/>
</g>
<g>
	<rect x="457.1" y="238.2" fill="#4A494A" width="8.7" height="47.7"/>
	<path d="M464.2,239.7v44.7h-5.7v-44.7H464.2 M467.2,236.7h-11.7v50.7h11.7V236.7L467.2,236.7z"/>
</g>
<g>
	<rect x="1010.3" y="238.2" fill="#4A494A" width="8.7" height="47.7"/>
	<path d="M1017.5,239.7v44.7h-5.7v-44.7H1017.5 M1020.5,236.7h-11.7v50.7h11.7V236.7L1020.5,236.7z"/>
</g>
<g>
	<rect x="424.5" y="238.2" fill="#4A494A" width="8.7" height="47.7"/>
	<path d="M431.7,239.7v44.7H426v-44.7H431.7 M434.7,236.7H423v50.7h11.7V236.7L434.7,236.7z"/>
</g>
<g>
	<rect x="977.7" y="238.2" fill="#4A494A" width="8.7" height="47.7"/>
	<path d="M984.9,239.7v44.7h-5.7v-44.7H984.9 M987.9,236.7h-11.7v50.7h11.7V236.7L987.9,236.7z"/>
</g>
<g>
	<rect x="392" y="238.2" fill="#4A494A" width="8.7" height="47.7"/>
	<path d="M399.2,239.7v44.7h-5.7v-44.7H399.2 M402.2,236.7h-11.7v50.7h11.7V236.7L402.2,236.7z"/>
</g>
<g>
	<rect x="945.2" y="238.2" fill="#4A494A" width="8.7" height="47.7"/>
	<path d="M952.4,239.7v44.7h-5.7v-44.7H952.4 M955.4,236.7h-11.7v50.7h11.7V236.7L955.4,236.7z"/>
</g>
<g>
	<rect x="359.5" y="238.2" fill="#4A494A" width="8.7" height="47.7"/>
	<path d="M366.6,239.7v44.7H361v-44.7H366.6 M369.6,236.7H358v50.7h11.7V236.7L369.6,236.7z"/>
</g>
<g>
	<rect x="912.7" y="238.2" fill="#4A494A" width="8.7" height="47.7"/>
	<path d="M919.8,239.7v44.7h-5.7v-44.7H919.8 M922.8,236.7h-11.7v50.7h11.7V236.7L922.8,236.7z"/>
</g>
<g>
	<rect x="326.9" y="238.2" fill="#4A494A" width="8.7" height="47.7"/>
	<path d="M334.1,239.7v44.7h-5.7v-44.7H334.1 M337.1,236.7h-11.7v50.7h11.7V236.7L337.1,236.7z"/>
</g>
<g>
	<rect x="880.1" y="238.2" fill="#4A494A" width="8.7" height="47.7"/>
	<path d="M887.3,239.7v44.7h-5.7v-44.7H887.3 M890.3,236.7h-11.7v50.7h11.7V236.7L890.3,236.7z"/>
</g>
<g>
	<rect x="294.4" y="238.2" fill="#4A494A" width="8.7" height="47.7"/>
	<path d="M301.5,239.7v44.7h-5.7v-44.7H301.5 M304.5,236.7h-11.7v50.7h11.7V236.7L304.5,236.7z"/>
</g>
<g>
	<rect x="847.6" y="238.2" fill="#4A494A" width="8.7" height="47.7"/>
	<path d="M854.7,239.7v44.7h-5.7v-44.7H854.7 M857.7,236.7h-11.7v50.7h11.7V236.7L857.7,236.7z"/>
</g>
<g>
	<rect x="261.8" y="238.2" fill="#4A494A" width="8.7" height="47.7"/>
	<path d="M269,239.7v44.7h-5.7v-44.7H269 M272,236.7h-11.7v50.7H272V236.7L272,236.7z"/>
</g>
<g>
	<rect x="815" y="238.2" fill="#4A494A" width="8.7" height="47.7"/>
	<path d="M822.2,239.7v44.7h-5.7v-44.7H822.2 M825.2,236.7h-11.7v50.7h11.7V236.7L825.2,236.7z"/>
</g>
<g>
	<rect x="229.3" y="238.2" fill="#4A494A" width="8.7" height="47.7"/>
	<path d="M236.5,239.7v44.7h-5.7v-44.7H236.5 M239.5,236.7h-11.7v50.7h11.7V236.7L239.5,236.7z"/>
</g>
<g>
	<rect x="782.5" y="238.2" fill="#4A494A" width="8.7" height="47.7"/>
	<path d="M789.7,239.7v44.7H784v-44.7H789.7 M792.7,236.7H781v50.7h11.7V236.7L792.7,236.7z"/>
</g>
<g>
	<rect x="196.8" y="238.2" fill="#4A494A" width="8.7" height="47.7"/>
	<path d="M203.9,239.7v44.7h-5.7v-44.7H203.9 M206.9,236.7h-11.7v50.7h11.7V236.7L206.9,236.7z"/>
</g>
<g>
	<rect x="750" y="238.2" fill="#4A494A" width="8.7" height="47.7"/>
	<path d="M757.1,239.7v44.7h-5.7v-44.7H757.1 M760.1,236.7h-11.7v50.7h11.7V236.7L760.1,236.7z"/>
</g>
<g>
	<rect x="164.2" y="238.2" fill="#4A494A" width="8.7" height="47.7"/>
	<path d="M171.4,239.7v44.7h-5.7v-44.7H171.4 M174.4,236.7h-11.7v50.7h11.7V236.7L174.4,236.7z"/>
</g>
<g>
	<rect x="717.4" y="238.2" fill="#4A494A" width="8.7" height="47.7"/>
	<path d="M724.6,239.7v44.7h-5.7v-44.7H724.6 M727.6,236.7h-11.7v50.7h11.7V236.7L727.6,236.7z"/>
</g>
<g>
	<rect x="131.7" y="238.2" fill="#4A494A" width="8.7" height="47.7"/>
	<path d="M138.8,239.7v44.7h-5.7v-44.7H138.8 M141.8,236.7h-11.7v50.7h11.7V236.7L141.8,236.7z"/>
</g>
<g>
	<rect x="1075.4" y="238.2" fill="#4A494A" width="8.7" height="47.7"/>
	<path d="M1082.5,239.7v44.7h-5.7v-44.7H1082.5 M1085.5,236.7h-11.7v50.7h11.7V236.7L1085.5,236.7z"/>
</g>
<rect y="302.4" opacity="5.000000e-02" width="1085.5" height="64.7"/>
</svg>
