<?xml version="1.0" encoding="utf-8"?>
<!-- Generator: Adobe Illustrator 16.0.0, SVG Export Plug-In . SVG Version: 6.00 Build 0)  -->
<!DOCTYPE svg PUBLIC "-//W3C//DTD SVG 1.1//EN" "http://www.w3.org/Graphics/SVG/1.1/DTD/svg11.dtd">
<svg version="1.1" id="Layer_1" xmlns="http://www.w3.org/2000/svg" xmlns:xlink="http://www.w3.org/1999/xlink" x="0px" y="0px"
	 width="228.2px" height="500px" viewBox="0 0 228.2 500" enable-background="new 0 0 228.2 500" xml:space="preserve">
<g>
	<path fill="#FEDA1F" stroke="#000000" stroke-width="3" stroke-miterlimit="10" d="M228.2,251.4c0,9.2-7.3,16.7-16.4,16.7h-146
		c-9,0-16.4-7.5-16.4-16.7l0,0c0-9.2,7.3-16.7,16.4-16.7h146C220.9,234.6,228.2,242.1,228.2,251.4L228.2,251.4z"/>
	<path fill="#FEDA1F" stroke="#000000" stroke-width="3" stroke-miterlimit="10" d="M146.5,333.7h-22.7c5.5-9.7,8.7-20.8,8.7-32.8
		c0-36.6-29.7-66.2-66.2-66.2S0,264.3,0,300.9s29.7,66.2,66.2,66.2h80.2c9.2,0,16.7-7.5,16.7-16.7S155.7,333.7,146.5,333.7z"/>
	<path fill="#FEDA1F" stroke="#000000" stroke-width="3" stroke-miterlimit="10" d="M96.6,284.4c0,9.1,7.4,16.5,16.5,16.5
		s16.5-7.4,16.5-16.5c0-2.4-0.5-4.6-1.4-6.7"/>
	<path fill="#FEDA1F" stroke="#000000" stroke-width="3" stroke-miterlimit="10" d="M97.6,290.2c-4.3-12.9-16.5-22.3-30.9-22.3
		c-18,0-32.5,14.6-32.5,32.5"/>
	<path fill="#FEDA1F" stroke="#000000" stroke-width="3" stroke-miterlimit="10" d="M163.2,284.5c0,9-7.3,16.4-16.4,16.4H113
		c-9,0-16.4-7.3-16.4-16.4l0,0c0-9,7.3-16.4,16.4-16.4h33.9C155.9,268.1,163.2,275.5,163.2,284.5L163.2,284.5z"/>
	<path fill="#FEDA1F" stroke="#000000" stroke-width="3" stroke-miterlimit="10" d="M163.2,317.3c0,9-7.3,16.4-16.4,16.4H113
		c-9,0-16.4-7.3-16.4-16.4l0,0c0-9,7.3-16.4,16.4-16.4h33.9C155.9,300.9,163.2,308.2,163.2,317.3L163.2,317.3z"/>
	<path fill="#FEDA1F" stroke="#000000" stroke-width="3" stroke-miterlimit="10" d="M163.2,350.8c0,9-7.3,16.4-16.4,16.4H113
		c-9,0-16.4-7.3-16.4-16.4l0,0c0-9,7.3-16.4,16.4-16.4h33.9C155.9,334.4,163.2,341.7,163.2,350.8L163.2,350.8z"/>
	<circle fill="#FEDA1F" stroke="#000000" stroke-width="3" stroke-miterlimit="10" cx="113.1" cy="284.5" r="16.5"/>
	<path fill="#FEDA1F" d="M95.1,281.6c0,0,2.3,3.4,3.6,7.2c0.7,2.1,28.6-9.1,28.6-9.1s-2.1-7.3-6.1-13s-16.1-3.8-16.1-3.8l-8.4,5.2
		l-3.4,7.3L95.1,281.6z"/>
	<path fill="#FEDA1F" stroke="#000000" stroke-width="3" stroke-miterlimit="10" d="M119.9,262c0,0,9.7,14,9.7,22.1"/>
</g>
<g>
	<rect x="268.6" y="287.4" fill="#EA5C5A" width="1082.5" height="13.5"/>
	<path d="M1349.7,288.9v10.5H270.1v-10.5H1349.7 M1352.7,285.9H267.1v16.5h1085.5V285.9L1352.7,285.9z"/>
</g>
<g>
	<rect x="268.6" y="238.2" fill="#4A494A" width="8.7" height="47.7"/>
	<path d="M275.8,239.7v44.7h-5.7v-44.7H275.8 M278.8,236.7h-11.7v50.7h11.7V236.7L278.8,236.7z"/>
</g>
<g>
	<rect x="301.2" y="238.2" fill="#4A494A" width="8.7" height="47.7"/>
	<path d="M308.4,239.7v44.7h-5.7v-44.7H308.4 M311.4,236.7h-11.7v50.7h11.7V236.7L311.4,236.7z"/>
</g>
<g>
	<rect x="333.7" y="238.2" fill="#4A494A" width="8.7" height="47.7"/>
	<path d="M340.9,239.7v44.7h-5.7v-44.7H340.9 M343.9,236.7h-11.7v50.7h11.7V236.7L343.9,236.7z"/>
</g>
<g>
	<rect x="366.3" y="238.2" fill="#4A494A" width="8.7" height="47.7"/>
	<path d="M373.4,239.7v44.7h-5.7v-44.7H373.4 M376.4,236.7h-11.7v50.7h11.7V236.7L376.4,236.7z"/>
</g>
<g>
	<rect x="952" y="238.2" fill="#4A494A" width="8.7" height="47.7"/>
	<path d="M959.2,239.7v44.7h-5.7v-44.7H959.2 M962.2,236.7h-11.7v50.7h11.7V236.7L962.2,236.7z"/>
</g>
<g>
	<rect x="1310" y="238.2" fill="#4A494A" width="8.7" height="47.7"/>
	<path d="M1317.1,239.7v44.7h-5.7v-44.7H1317.1 M1320.1,236.7h-11.7v50.7h11.7V236.7L1320.1,236.7z"/>
</g>
<g>
	<rect x="919.5" y="238.2" fill="#4A494A" width="8.7" height="47.7"/>
	<path d="M926.6,239.7v44.7H921v-44.7H926.6 M929.6,236.7H918v50.7h11.7V236.7L929.6,236.7z"/>
</g>
<g>
	<rect x="886.9" y="238.2" fill="#4A494A" width="8.7" height="47.7"/>
	<path d="M894.1,239.7v44.7h-5.7v-44.7H894.1 M897.1,236.7h-11.7v50.7h11.7V236.7L897.1,236.7z"/>
</g>
<g>
	<rect x="854.4" y="238.2" fill="#4A494A" width="8.7" height="47.7"/>
	<path d="M861.6,239.7v44.7h-5.7v-44.7H861.6 M864.6,236.7h-11.7v50.7h11.7V236.7L864.6,236.7z"/>
</g>
<g>
	<rect x="821.9" y="238.2" fill="#4A494A" width="8.7" height="47.7"/>
	<path d="M829,239.7v44.7h-5.7v-44.7H829 M832,236.7h-11.7v50.7H832V236.7L832,236.7z"/>
</g>
<g>
	<rect x="789.3" y="238.2" fill="#4A494A" width="8.7" height="47.7"/>
	<path d="M796.5,239.7v44.7h-5.7v-44.7H796.5 M799.5,236.7h-11.7v50.7h11.7V236.7L799.5,236.7z"/>
</g>
<g>
	<rect x="756.8" y="238.2" fill="#4A494A" width="8.7" height="47.7"/>
	<path d="M763.9,239.7v44.7h-5.7v-44.7H763.9 M766.9,236.7h-11.7v50.7h11.7V236.7L766.9,236.7z"/>
</g>
<g>
	<rect x="724.2" y="238.2" fill="#4A494A" width="8.7" height="47.7"/>
	<path d="M731.4,239.7v44.7h-5.7v-44.7H731.4 M734.4,236.7h-11.7v50.7h11.7V236.7L734.4,236.7z"/>
</g>
<g>
	<rect x="1277.4" y="238.2" fill="#4A494A" width="8.7" height="47.7"/>
	<path d="M1284.6,239.7v44.7h-5.7v-44.7H1284.6 M1287.6,236.7h-11.7v50.7h11.7V236.7L1287.6,236.7z"/>
</g>
<g>
	<rect x="691.7" y="238.2" fill="#4A494A" width="8.7" height="47.7"/>
	<path d="M698.9,239.7v44.7h-5.7v-44.7H698.9 M701.9,236.7h-11.7v50.7h11.7V236.7L701.9,236.7z"/>
</g>
<g>
	<rect x="1244.9" y="238.2" fill="#4A494A" width="8.7" height="47.7"/>
	<path d="M1252.1,239.7v44.7h-5.7v-44.7H1252.1 M1255.1,236.7h-11.7v50.7h11.7V236.7L1255.1,236.7z"/>
</g>
<g>
	<rect x="659.1" y="238.2" fill="#4A494A" width="8.7" height="47.7"/>
	<path d="M666.3,239.7v44.7h-5.7v-44.7H666.3 M669.3,236.7h-11.7v50.7h11.7V236.7L669.3,236.7z"/>
</g>
<g>
	<rect x="1212.4" y="238.2" fill="#4A494A" width="8.7" height="47.7"/>
	<path d="M1219.5,239.7v44.7h-5.7v-44.7H1219.5 M1222.5,236.7h-11.7v50.7h11.7V236.7L1222.5,236.7z"/>
</g>
<g>
	<rect x="626.6" y="238.2" fill="#4A494A" width="8.7" height="47.7"/>
	<path d="M633.8,239.7v44.7h-5.7v-44.7H633.8 M636.8,236.7h-11.7v50.7h11.7V236.7L636.8,236.7z"/>
</g>
<g>
	<rect x="1179.8" y="238.2" fill="#4A494A" width="8.7" height="47.7"/>
	<path d="M1187,239.7v44.7h-5.7v-44.7H1187 M1190,236.7h-11.7v50.7h11.7V236.7L1190,236.7z"/>
</g>
<g>
	<rect x="594.1" y="238.2" fill="#4A494A" width="8.7" height="47.7"/>
	<path d="M601.2,239.7v44.7h-5.7v-44.7H601.2 M604.2,236.7h-11.7v50.7h11.7V236.7L604.2,236.7z"/>
</g>
<g>
	<rect x="1147.3" y="238.2" fill="#4A494A" width="8.7" height="47.7"/>
	<path d="M1154.4,239.7v44.7h-5.7v-44.7H1154.4 M1157.4,236.7h-11.7v50.7h11.7V236.7L1157.4,236.7z"/>
</g>
<g>
	<rect x="561.5" y="238.2" fill="#4A494A" width="8.7" height="47.7"/>
	<path d="M568.7,239.7v44.7H563v-44.7H568.7 M571.7,236.7H560v50.7h11.7V236.7L571.7,236.7z"/>
</g>
<g>
	<rect x="1114.7" y="238.2" fill="#4A494A" width="8.7" height="47.7"/>
	<path d="M1121.9,239.7v44.7h-5.7v-44.7H1121.9 M1124.9,236.7h-11.7v50.7h11.7V236.7L1124.9,236.7z"/>
</g>
<g>
	<rect x="529" y="238.2" fill="#4A494A" width="8.7" height="47.7"/>
	<path d="M536.1,239.7v44.7h-5.7v-44.7H536.1 M539.1,236.7h-11.7v50.7h11.7V236.7L539.1,236.7z"/>
</g>
<g>
	<rect x="1082.2" y="238.2" fill="#4A494A" width="8.7" height="47.7"/>
	<path d="M1089.4,239.7v44.7h-5.7v-44.7H1089.4 M1092.4,236.7h-11.7v50.7h11.7V236.7L1092.4,236.7z"/>
</g>
<g>
	<rect x="496.4" y="238.2" fill="#4A494A" width="8.7" height="47.7"/>
	<path d="M503.6,239.7v44.7h-5.7v-44.7H503.6 M506.6,236.7h-11.7v50.7h11.7V236.7L506.6,236.7z"/>
</g>
<g>
	<rect x="1049.6" y="238.2" fill="#4A494A" width="8.7" height="47.7"/>
	<path d="M1056.8,239.7v44.7h-5.7v-44.7H1056.8 M1059.8,236.7h-11.7v50.7h11.7V236.7L1059.8,236.7z"/>
</g>
<g>
	<rect x="463.9" y="238.2" fill="#4A494A" width="8.7" height="47.7"/>
	<path d="M471.1,239.7v44.7h-5.7v-44.7H471.1 M474.1,236.7h-11.7v50.7h11.7V236.7L474.1,236.7z"/>
</g>
<g>
	<rect x="1017.1" y="238.2" fill="#4A494A" width="8.7" height="47.7"/>
	<path d="M1024.3,239.7v44.7h-5.7v-44.7H1024.3 M1027.3,236.7h-11.7v50.7h11.7V236.7L1027.3,236.7z"/>
</g>
<g>
	<rect x="431.4" y="238.2" fill="#4A494A" width="8.7" height="47.7"/>
	<path d="M438.5,239.7v44.7h-5.7v-44.7H438.5 M441.5,236.7h-11.7v50.7h11.7V236.7L441.5,236.7z"/>
</g>
<g>
	<rect x="984.6" y="238.2" fill="#4A494A" width="8.7" height="47.7"/>
	<path d="M991.7,239.7v44.7h-5.7v-44.7H991.7 M994.7,236.7h-11.7v50.7h11.7V236.7L994.7,236.7z"/>
</g>
<g>
	<rect x="398.8" y="238.2" fill="#4A494A" width="8.7" height="47.7"/>
	<path d="M406,239.7v44.7h-5.7v-44.7H406 M409,236.7h-11.7v50.7H409V236.7L409,236.7z"/>
</g>
<g>
	<rect x="1342.5" y="238.2" fill="#4A494A" width="8.7" height="47.7"/>
	<path d="M1349.7,239.7v44.7h-5.7v-44.7H1349.7 M1352.7,236.7H1341v50.7h11.7V236.7L1352.7,236.7z"/>
</g>
<rect x="267.1" y="302.4" opacity="5.000000e-02" width="1085.5" height="64.7"/>
</svg>
