<?xml version="1.0" encoding="utf-8"?>
<!-- Generator: Adobe Illustrator 16.0.0, SVG Export Plug-In . SVG Version: 6.00 Build 0)  -->
<!DOCTYPE svg PUBLIC "-//W3C//DTD SVG 1.1//EN" "http://www.w3.org/Graphics/SVG/1.1/DTD/svg11.dtd">
<svg version="1.1" id="Layer_1" xmlns="http://www.w3.org/2000/svg" xmlns:xlink="http://www.w3.org/1999/xlink" x="0px" y="0px"
	 width="729.5px" height="500px" viewBox="0 0 729.5 500" enable-background="new 0 0 729.5 500" xml:space="preserve">
<line fill="none" stroke="#000000" stroke-width="3" stroke-miterlimit="10" x1="235.3" y1="207.7" x2="158.2" y2="445.8"/>
<line fill="none" stroke="#000000" stroke-width="3" stroke-miterlimit="10" x1="235.3" y1="207.7" x2="308.2" y2="445.8"/>
<g>
	<rect x="138.3" y="447.3" fill="#EA5C5A" width="193.7" height="13.5"/>
	<path d="M330.5,448.8v10.5H139.8v-10.5H330.5 M333.5,445.8H136.8v16.5h196.7V445.8L333.5,445.8z"/>
</g>
<line fill="none" stroke="#000000" stroke-width="3" stroke-miterlimit="10" x1="450.7" y1="69.9" x2="450.7" y2="240.5"/>
<g>
	<circle fill="#FFFFFF" stroke="#000000" stroke-width="3" stroke-miterlimit="10" cx="434" cy="69.9" r="16.7"/>
	<circle fill="#1BBDE6" stroke="#000000" stroke-width="3" stroke-miterlimit="10" cx="434" cy="69.9" r="7.5"/>
</g>
<g>
	<circle fill="#FFFFFF" stroke="#000000" stroke-width="3" stroke-miterlimit="10" cx="252" cy="69.9" r="16.7"/>
	<circle fill="#1BBDE6" stroke="#000000" stroke-width="3" stroke-miterlimit="10" cx="252" cy="69.9" r="7.5"/>
</g>
<line fill="none" stroke="#000000" stroke-width="3" stroke-miterlimit="10" x1="252" y1="53.2" x2="434" y2="53.2"/>
<line fill="none" stroke="#000000" stroke-width="3" stroke-miterlimit="10" x1="235.3" y1="207.7" x2="235.3" y2="69.9"/>
<g>
	
		<rect x="49.3" y="295" transform="matrix(-0.7071 0.7071 -0.7071 -0.7071 342.4766 556.3584)" fill="#EA5C5A" width="13.5" height="108.2"/>
	<path d="M22.5,308.2l74.4,74.4l-7.4,7.4l-74.4-74.4L22.5,308.2 M22.5,303.9l-11.7,11.7l78.7,78.7l11.7-11.7L22.5,303.9L22.5,303.9z
		"/>
</g>
<circle fill="#71BF46" stroke="#000000" stroke-width="3" stroke-miterlimit="10" cx="48" cy="356.1" r="11.3"/>
<g>
	
		<rect x="572.8" y="128.5" transform="matrix(-0.1784 0.984 -0.984 -0.1784 950.7555 -249.5017)" fill="#EA5C5A" width="13.5" height="287.3"/>
	<path d="M440.6,241.7l279.7,50.7l-1.9,10.3L438.7,252L440.6,241.7 M438.2,238.2l-2.9,16.2l285.6,51.8l2.9-16.2L438.2,238.2
		L438.2,238.2z"/>
</g>
<g>
	<circle fill="#FFFFFF" stroke="#000000" stroke-width="3" stroke-miterlimit="10" cx="690" cy="248" r="34.6"/>
	<path fill="none" stroke="#EA5C5A" stroke-width="3" stroke-miterlimit="10" d="M655.4,248c0,10.8,4.9,20.4,12.6,26.7
		c7.7-6.3,12.6-16,12.6-26.7s-4.9-20.4-12.6-26.7C660.3,227.6,655.4,237.2,655.4,248z"/>
	<path fill="none" stroke="#EA5C5A" stroke-width="3" stroke-miterlimit="10" d="M724.6,248c0,10.8-4.9,20.4-12.6,26.7
		c-7.7-6.3-12.6-16-12.6-26.7s4.9-20.4,12.6-26.7C719.7,227.6,724.6,237.2,724.6,248z"/>
	<circle fill="none" stroke="#000000" stroke-width="3" stroke-miterlimit="10" cx="690" cy="248" r="34.6"/>
	
		<line fill="none" stroke="#EA5C5A" stroke-width="3" stroke-linecap="round" stroke-miterlimit="10" x1="670.8" y1="229.3" x2="676.8" y2="224.3"/>
	
		<line fill="none" stroke="#EA5C5A" stroke-width="3" stroke-linecap="round" stroke-miterlimit="10" x1="673.8" y1="235" x2="680.6" y2="232.4"/>
	
		<line fill="none" stroke="#EA5C5A" stroke-width="3" stroke-linecap="round" stroke-miterlimit="10" x1="676.8" y1="244.6" x2="683.8" y2="245"/>
	
		<line fill="none" stroke="#EA5C5A" stroke-width="3" stroke-linecap="round" stroke-miterlimit="10" x1="676.8" y1="252.5" x2="683.8" y2="254.6"/>
	
		<line fill="none" stroke="#EA5C5A" stroke-width="3" stroke-linecap="round" stroke-miterlimit="10" x1="673.8" y1="259.8" x2="680.3" y2="263.6"/>
	
		<line fill="none" stroke="#EA5C5A" stroke-width="3" stroke-linecap="round" stroke-miterlimit="10" x1="670.1" y1="267.3" x2="675.6" y2="272.1"/>
	
		<line fill="none" stroke="#EA5C5A" stroke-width="3" stroke-linecap="round" stroke-miterlimit="10" x1="705.6" y1="273.6" x2="710.1" y2="269"/>
	
		<line fill="none" stroke="#EA5C5A" stroke-width="3" stroke-linecap="round" stroke-miterlimit="10" x1="700.5" y1="267.3" x2="705.6" y2="262.8"/>
	
		<line fill="none" stroke="#EA5C5A" stroke-width="3" stroke-linecap="round" stroke-miterlimit="10" x1="696.5" y1="254.6" x2="703" y2="252.5"/>
	
		<line fill="none" stroke="#EA5C5A" stroke-width="3" stroke-linecap="round" stroke-miterlimit="10" x1="694.8" y1="244.6" x2="703" y2="245"/>
	
		<line fill="none" stroke="#EA5C5A" stroke-width="3" stroke-linecap="round" stroke-miterlimit="10" x1="697.8" y1="230.6" x2="705.6" y2="235"/>
	
		<line fill="none" stroke="#EA5C5A" stroke-width="3" stroke-linecap="round" stroke-miterlimit="10" x1="705.6" y1="223.1" x2="710.1" y2="227.5"/>
</g>
<circle fill="#71BF46" stroke="#000000" stroke-width="3" stroke-miterlimit="10" cx="579.5" cy="282.6" r="11.3"/>
<path fill="none" stroke="#FFDE17" stroke-width="21" stroke-miterlimit="10" d="M233.6,394.3c0,0,3.6-194.3,0-200.2s-12-3.5-12-3.5
	"/>
<g>
	<path fill="#CB9AC6" d="M228.5,199.3c1-1,1-2.7,0-3.8L210,177c-1-1-2.7-1-3.8,0c-0.1,0.1-1.9,2.9-3.7,4.7l-0.2-0.2
		c-0.6-0.6-1.8-0.4-2.6,0.4c-0.8,0.8-1,2-0.4,2.6l0.9,0.9l-0.1,0.2c-1.4,1-3,2-4.6,3.1l0,0l0,0l-12.5-9.6c0,0-9.6-9.6-26.7,5.6
		c-17.2,15.2-29.1,29.1-29.1,29.1l6-0.8c-7.2,1.2-14.1,3.4-18.8,8.1l-77.6,77.6c-3.3,3.3-7.9,10.9-0.5,18.3l52.3,52.3
		c7.4,7.4,15.1,2.8,18.3-0.5l77.6-77.6c13.4-13.4,7-44.5,11.6-50.3c5.5-6.8,16.3-24.4,23.8-35.5l0.2-0.1l0.5,0.5
		c0.8,0.8,2.2,0.8,3,0c0.8-0.8,0.8-2,0.1-2.8l0,0C225.6,201.2,228.4,199.5,228.5,199.3z M164.6,209.4c-2.6,2.1-10.4,1.9-19.4,2.4
		l8.6-0.5c-9.3-7.3,0.2-14.4,5.8-19.3c5.6-5,9.1-7.8,16-4.4c5.1,2.4,4.3,11.2,4.3,11.2s0.1,0,0.2,0l-0.1,0.1
		C173.6,203,167.9,206.8,164.6,209.4z"/>
	<g>
		<path fill="none" stroke="#000000" stroke-width="3" stroke-linecap="round" stroke-linejoin="round" stroke-miterlimit="10" d="
			M195.5,188.6c1.6-1.1,3.1-2.1,4.6-3.1"/>
		<path fill="none" stroke="#000000" stroke-width="3" stroke-linecap="round" stroke-linejoin="round" stroke-miterlimit="10" d="
			M145.2,211.8c9-0.4,16.8-0.3,19.4-2.4c3.3-2.6,9-6.5,15.3-10.6"/>
		<path fill="none" stroke="#000000" stroke-width="3" stroke-linecap="round" stroke-linejoin="round" stroke-miterlimit="10" d="
			M220,205.4c-7.6,11.1-18.4,28.6-23.8,35.5c-4.6,5.8,1.7,36.9-11.6,50.3l-77.6,77.6c-3.3,3.3-10.9,7.9-18.3,0.5L36.2,317
			c-7.4-7.4-2.8-15,0.5-18.3l77.6-77.6c4.7-4.7,11.6-7,18.8-8.1"/>
		<g>
			<path fill="none" stroke="#000000" stroke-width="3" stroke-linecap="round" stroke-linejoin="round" stroke-miterlimit="10" d="
				M223.8,203c1.8-1.8,4.6-3.6,4.7-3.7l0,0c1-1,1-2.7,0-3.8L210,177c-1-1-2.7-1-3.8,0l0,0c-0.1,0.1-1.9,2.9-3.7,4.7"/>
			<g>
				
					<path fill="none" stroke="#000000" stroke-width="3" stroke-linecap="round" stroke-linejoin="round" stroke-miterlimit="10" d="
					M202.3,181.5c-0.6-0.6-1.8-0.4-2.6,0.4c-0.8,0.8-1,2-0.4,2.6l21.4,21.4c0.8,0.8,2.2,0.8,3,0c0.8-0.8,0.8-2.2,0-3L202.3,181.5z"
					/>
			</g>
		</g>
		<path fill="none" stroke="#000000" stroke-width="3" stroke-linecap="round" stroke-linejoin="round" stroke-miterlimit="10" d="
			M153.8,211.3c-9.3-7.3,0.2-14.4,5.8-19.3c5.6-5,9.1-7.8,16-4.4c5.1,2.4,4.3,11.2,4.3,11.2s10.7,2.5,15.7-10.1l-12.5-9.6
			c0,0-9.6-9.6-26.7,5.6c-17.2,15.2-29.1,29.1-29.1,29.1"/>
		
			<line fill="none" stroke="#000000" stroke-width="3" stroke-linecap="round" stroke-linejoin="round" stroke-miterlimit="10" x1="172.5" y1="217.7" x2="187.8" y2="233.1"/>
	</g>
	<g>
		<path fill="none" stroke="#000000" stroke-width="3" stroke-linecap="round" stroke-linejoin="round" stroke-miterlimit="10" d="
			M195.5,188.6c1.6-1.1,3.1-2.1,4.6-3.1"/>
		<path fill="none" stroke="#000000" stroke-width="3" stroke-linecap="round" stroke-linejoin="round" stroke-miterlimit="10" d="
			M145.2,211.8c9-0.4,16.8-0.3,19.4-2.4c3.3-2.6,9-6.5,15.3-10.6"/>
		<path fill="none" stroke="#000000" stroke-width="3" stroke-linecap="round" stroke-linejoin="round" stroke-miterlimit="10" d="
			M220,205.4c-7.6,11.1-18.4,28.6-23.8,35.5c-4.6,5.8,1.7,36.9-11.6,50.3l-77.6,77.6c-3.3,3.3-10.9,7.9-18.3,0.5L36.2,317
			c-7.4-7.4-2.8-15,0.5-18.3l77.6-77.6c4.7-4.7,11.6-7,18.8-8.1"/>
		<g>
			<path fill="none" stroke="#000000" stroke-width="3" stroke-linecap="round" stroke-linejoin="round" stroke-miterlimit="10" d="
				M223.8,203c1.8-1.8,4.6-3.6,4.7-3.7l0,0c1-1,1-2.7,0-3.8L210,177c-1-1-2.7-1-3.8,0l0,0c-0.1,0.1-1.9,2.9-3.7,4.7"/>
			<g>
				
					<path fill="none" stroke="#000000" stroke-width="3" stroke-linecap="round" stroke-linejoin="round" stroke-miterlimit="10" d="
					M202.3,181.5c-0.6-0.6-1.8-0.4-2.6,0.4c-0.8,0.8-1,2-0.4,2.6l21.4,21.4c0.8,0.8,2.2,0.8,3,0c0.8-0.8,0.8-2.2,0-3L202.3,181.5z"
					/>
			</g>
		</g>
		<path fill="none" stroke="#000000" stroke-width="3" stroke-linecap="round" stroke-linejoin="round" stroke-miterlimit="10" d="
			M153.8,211.3c-9.3-7.3,0.2-14.4,5.8-19.3c5.6-5,9.1-7.8,16-4.4c5.1,2.4,4.3,11.2,4.3,11.2s10.7,2.5,15.7-10.1l-12.5-9.6
			c0,0-9.6-9.6-26.7,5.6c-17.2,15.2-29.1,29.1-29.1,29.1"/>
		
			<line fill="none" stroke="#000000" stroke-width="3" stroke-linecap="round" stroke-linejoin="round" stroke-miterlimit="10" x1="172.5" y1="217.7" x2="187.8" y2="233.1"/>
	</g>
</g>
<g>
	<path fill="#0CBDE2" d="M271.2,408.2c3.3-0.4,5.9-2.3,5.9-6.6c0,0,0-41.3,0-41.3h-86.5v41.3c0,4.3,2.5,6.2,5.9,6.6v0V439
		c0,4.4,2.9,6,6.4,6h61.9c3.6,0,6.4-1.6,6.4-6L271.2,408.2"/>
	<path fill="#FFDE17" d="M190.6,391v10.6c0,4.3,2.5,6.2,5.9,6.6V439c0,4.4,2.9,6,6.4,6h61.9c3.6,0,6.4-1.6,6.4-6v-30.7h0
		c3.3-0.4,5.9-2.3,5.9-6.6c0,0,0-10.9,0-10.9C277.1,390.7,190.6,391,190.6,391z"/>
	<g>
		<g>
			<path fill="none" stroke="#000000" stroke-width="3" stroke-linecap="round" stroke-linejoin="round" stroke-miterlimit="10" d="
				M205,444v-25.9c0-1.7,1.9-3.1,4.3-3.1c2.4,0,4.3,1.4,4.3,3.1V444"/>
		</g>
		<g>
			<path fill="none" stroke="#000000" stroke-width="3" stroke-linecap="round" stroke-linejoin="round" stroke-miterlimit="10" d="
				M221.3,444v-25.9c0-1.7,1.9-3.1,4.3-3.1c2.4,0,4.3,1.4,4.3,3.1V444"/>
		</g>
		<g>
			<path fill="none" stroke="#000000" stroke-width="3" stroke-linecap="round" stroke-linejoin="round" stroke-miterlimit="10" d="
				M237.6,444v-25.9c0-1.7,1.9-3.1,4.3-3.1c2.4,0,4.3,1.4,4.3,3.1V444"/>
		</g>
		<g>
			<path fill="none" stroke="#000000" stroke-width="3" stroke-linecap="round" stroke-linejoin="round" stroke-miterlimit="10" d="
				M254,444v-25.9c0-1.7,1.9-3.1,4.3-3.1c2.4,0,4.3,1.4,4.3,3.1V444"/>
		</g>
	</g>
	
		<line fill="none" stroke="#000000" stroke-width="3" stroke-linecap="round" stroke-linejoin="round" stroke-miterlimit="10" x1="205" y1="408.3" x2="262.6" y2="408.3"/>
	
		<path fill="#FFFFFF" stroke="#000000" stroke-width="3" stroke-linecap="round" stroke-linejoin="round" stroke-miterlimit="10" d="
		M277.1,386.6c-3.1,0-3.1-2.3-6.2-2.3c-3.1,0-3.1,2.3-6.2,2.3c-3.1,0-3.1-2.3-6.2-2.3c-3.1,0-3.1,2.3-6.2,2.3s-3.1-2.3-6.2-2.3
		s-3.1,2.3-6.2,2.3s-3.1-2.3-6.2-2.3c-3.1,0-3.1,2.3-6.2,2.3c-3.1,0-3.1-2.3-6.2-2.3s-3.1,2.3-6.2,2.3c-3.1,0-3.1-2.3-6.2-2.3
		c-3.1,0-3.1,2.3-6.2,2.3c-3.1,0-3.1-2.3-6.2-2.3c-3.1,0-3.1,2.3-6.2,2.3v4.1h86.5l0-3.2"/>
	<path fill="none" stroke="#000000" stroke-width="3" stroke-linecap="round" stroke-linejoin="round" stroke-miterlimit="10" d="
		M271.2,408.2c3.3-0.4,5.9-2.3,5.9-6.6c0,0,0-41.3,0-41.3h-86.5v41.3c0,4.3,2.5,6.2,5.9,6.6v0V439c0,4.4,2.9,6,6.4,6h61.9
		c3.6,0,6.4-1.6,6.4-6L271.2,408.2"/>
</g>
</svg>
