<?xml version="1.0" encoding="utf-8"?>
<!-- Generator: Adobe Illustrator 16.0.0, SVG Export Plug-In . SVG Version: 6.00 Build 0)  -->
<!DOCTYPE svg PUBLIC "-//W3C//DTD SVG 1.1//EN" "http://www.w3.org/Graphics/SVG/1.1/DTD/svg11.dtd">
<svg version="1.1" id="Layer_1" xmlns="http://www.w3.org/2000/svg" xmlns:xlink="http://www.w3.org/1999/xlink" x="0px" y="0px"
	 width="500px" height="400px" viewBox="0 0 500 400" enable-background="new 0 0 500 400" xml:space="preserve">
<g>
	<rect fill="#F36E52" width="500" height="400"/>
	<rect x="52.1" y="211.3" fill="#F26346" width="148.1" height="188.7"/>
	<rect y="170" fill="#F26346" width="72.9" height="230"/>
	<path fill="#F26346" d="M41.7,161.6c0-5.8,4.7-10.4,10.4-10.4l0,0c5.8,0,10.4,4.7,10.4,10.4v173.1c0,5.8-4.7,10.4-10.4,10.4l0,0
		c-5.8,0-10.4-4.7-10.4-10.4V161.6z"/>
	<path fill="#F36E52" d="M62.5,90.6c0-5.8,4.7-10.4,10.4-10.4l0,0c5.8,0,10.4,4.7,10.4,10.4v173.1c0,5.8-4.7,10.4-10.4,10.4l0,0
		c-5.8,0-10.4-4.7-10.4-10.4V90.6z"/>
	<path fill="#F26346" d="M83.3,209c0-5.8,4.7-10.4,10.4-10.4l0,0c5.8,0,10.4,4.7,10.4,10.4v173.1c0,5.8-4.7,10.4-10.4,10.4l0,0
		c-5.8,0-10.4-4.7-10.4-10.4V209z"/>
	<path fill="#F36E52" d="M104.2,55.2c0-5.8,4.7-10.4,10.4-10.4l0,0c5.8,0,10.4,4.7,10.4,10.4v173.1c0,5.8-4.7,10.4-10.4,10.4l0,0
		c-5.8,0-10.4-4.7-10.4-10.4V55.2z"/>
	<path fill="#F26346" d="M125,183.2c0-5.8,4.7-10.4,10.4-10.4l0,0c5.8,0,10.4,4.7,10.4,10.4v173.1c0,5.8-4.7,10.4-10.4,10.4l0,0
		c-5.8,0-10.4-4.7-10.4-10.4V183.2z"/>
	<path fill="#F36E52" d="M145.8,74.8c0-5.8,4.7-10.4,10.4-10.4l0,0c5.8,0,10.4,4.7,10.4,10.4V248c0,5.8-4.7,10.4-10.4,10.4l0,0
		c-5.8,0-10.4-4.7-10.4-10.4V74.8z"/>
	<rect x="177.1" y="225.6" fill="#F26346" width="83.3" height="174.4"/>
	<path fill="#F36E52" d="M20.8,10.4C20.8,4.7,25.5,0,31.2,0l0,0C37,0,41.7,4.7,41.7,10.4v173.1c0,5.8-4.7,10.4-10.4,10.4l0,0
		c-5.8,0-10.4-4.7-10.4-10.4V10.4z"/>
	<path fill="#F26346" d="M0,122c0-5.8,4.7-10.4,10.4-10.4l0,0c5.8,0,10.4,4.7,10.4,10.4v173.1c0,5.8-4.7,10.4-10.4,10.4l0,0
		c-5.8,0-10.4-4.7-10.4-10.4V122z"/>
	<path fill="#F26346" d="M166.7,206.9c0-5.8,4.7-10.4,10.4-10.4l0,0c5.8,0,10.4,4.7,10.4,10.4V380c0,5.8-4.7,10.4-10.4,10.4l0,0
		c-5.8,0-10.4-4.7-10.4-10.4V206.9z"/>
	<path fill="#F36E52" d="M187.5,112c0-5.8,4.7-10.4,10.4-10.4l0,0c5.8,0,10.4,4.7,10.4,10.4v173.1c0,5.8-4.7,10.4-10.4,10.4l0,0
		c-5.8,0-10.4-4.7-10.4-10.4V112z"/>
	<path fill="#F26346" d="M208.3,216.4c0-5.8,4.7-10.4,10.4-10.4l0,0c5.8,0,10.4,4.7,10.4,10.4v173.1c0,5.8-4.7,10.4-10.4,10.4l0,0
		c-5.8,0-10.4-4.7-10.4-10.4V216.4z"/>
	<path fill="#F36E52" d="M229.2,52.5c0-5.8,4.7-10.4,10.4-10.4l0,0c5.8,0,10.4,4.7,10.4,10.4v173.1c0,5.8-4.7,10.4-10.4,10.4l0,0
		c-5.8,0-10.4-4.7-10.4-10.4V52.5z"/>
	<path fill="#F26346" d="M250,185.4c0-5.8,4.7-10.4,10.4-10.4l0,0c5.8,0,10.4,4.7,10.4,10.4v173.1c0,5.8-4.7,10.4-10.4,10.4l0,0
		c-5.8,0-10.4-4.7-10.4-10.4V185.4z"/>
	<rect x="260.4" y="186" fill="#F26346" width="239.6" height="214"/>
	<path fill="#F36E52" d="M270.8,27.8c0-5.8,4.7-10.4,10.4-10.4l0,0c5.8,0,10.4,4.7,10.4,10.4v173.1c0,5.8-4.7,10.4-10.4,10.4l0,0
		c-5.8,0-10.4-4.7-10.4-10.4V27.8z"/>
	<path fill="#F26346" d="M291.7,170.1c0-5.8,4.7-10.4,10.4-10.4l0,0c5.8,0,10.4,4.7,10.4,10.4v173.1c0,5.8-4.7,10.4-10.4,10.4l0,0
		c-5.8,0-10.4-4.7-10.4-10.4V170.1z"/>
	<path fill="#F36E52" d="M312.5,12.9c0-5.8,4.7-10.4,10.4-10.4l0,0c5.8,0,10.4,4.7,10.4,10.4V186c0,5.8-4.7,10.4-10.4,10.4l0,0
		c-5.8,0-10.4-4.7-10.4-10.4V12.9z"/>
	<path fill="#F26346" d="M333.3,180.4c0-5.8,4.7-10.4,10.4-10.4l0,0c5.8,0,10.4,4.7,10.4,10.4v173.1c0,5.8-4.7,10.4-10.4,10.4l0,0
		c-5.8,0-10.4-4.7-10.4-10.4V180.4z"/>
	<path fill="#F36E52" d="M354.2,25.8c0-5.8,4.7-10.4,10.4-10.4l0,0c5.8,0,10.4,4.7,10.4,10.4V199c0,5.8-4.7,10.4-10.4,10.4l0,0
		c-5.8,0-10.4-4.7-10.4-10.4V25.8z"/>
	<path fill="#F26346" d="M375,164.5c0-5.8,4.7-10.4,10.4-10.4l0,0c5.8,0,10.4,4.7,10.4,10.4v173.1c0,5.8-4.7,10.4-10.4,10.4l0,0
		c-5.8,0-10.4-4.7-10.4-10.4V164.5z"/>
	<path fill="#F36E52" d="M395.8,10.8c0-5.8,4.7-10.4,10.4-10.4l0,0c5.8,0,10.4,4.7,10.4,10.4V184c0,5.8-4.7,10.4-10.4,10.4l0,0
		c-5.8,0-10.4-4.7-10.4-10.4V10.8z"/>
	<path fill="#F26346" d="M416.7,152.2c0-5.8,4.7-10.4,10.4-10.4l0,0c5.8,0,10.4,4.7,10.4,10.4v173.1c0,5.8-4.7,10.4-10.4,10.4l0,0
		c-5.8,0-10.4-4.7-10.4-10.4V152.2z"/>
	<path fill="#F36E52" d="M437.5,21c0-5.8,4.7-10.4,10.4-10.4l0,0c5.8,0,10.4,4.7,10.4,10.4v173.1c0,5.8-4.7,10.4-10.4,10.4l0,0
		c-5.8,0-10.4-4.7-10.4-10.4V21z"/>
	<path fill="#F26346" d="M458.3,174.9c0-5.8,4.7-10.4,10.4-10.4l0,0c5.8,0,10.4,4.7,10.4,10.4V348c0,5.8-4.7,10.4-10.4,10.4l0,0
		c-5.8,0-10.4-4.7-10.4-10.4V174.9z"/>
	<path fill="#F36E52" d="M479.2,51.6c0-5.8,4.7-10.4,10.4-10.4l0,0c5.8,0,10.4,4.7,10.4,10.4v173.1c0,5.8-4.7,10.4-10.4,10.4l0,0
		c-5.8,0-10.4-4.7-10.4-10.4V51.6z"/>
</g>
</svg>
