<?xml version="1.0" encoding="utf-8"?>
<!-- Generator: Adobe Illustrator 16.0.0, SVG Export Plug-In . SVG Version: 6.00 Build 0)  -->
<!DOCTYPE svg PUBLIC "-//W3C//DTD SVG 1.1//EN" "http://www.w3.org/Graphics/SVG/1.1/DTD/svg11.dtd">
<svg version="1.1" id="Layer_1" xmlns="http://www.w3.org/2000/svg" xmlns:xlink="http://www.w3.org/1999/xlink" x="0px" y="0px"
	 width="576.2px" height="500px" viewBox="0 0 576.2 500" enable-background="new 0 0 576.2 500" xml:space="preserve">
<g>
	<g>
		
			<rect x="387.9" y="57.1" transform="matrix(-0.7071 0.7071 -0.7071 -0.7071 817.8383 69.1313)" fill="#EA5C5A" width="13.5" height="293.8"/>
		<path d="M295.5,97.4l205.6,205.6l-7.4,7.4L288.1,104.9L295.5,97.4 M295.5,93.2l-11.7,11.7l209.8,209.8l11.7-11.7L295.5,93.2
			L295.5,93.2z"/>
	</g>
	<circle fill="#71BF46" stroke="#000000" stroke-width="3" stroke-miterlimit="10" cx="376.7" cy="186" r="11.3"/>
	<g>
		<path fill="#71BF46" stroke="#000000" stroke-width="3" stroke-miterlimit="10" d="M450.4,231.6c21.3,21.3,55.9,21.3,77.2,0l22,22
			l-64.7,64.6l-60.6-60.6L450.4,231.6z"/>
		<path fill="#1AB06A" stroke="#000000" stroke-width="3" stroke-miterlimit="10" d="M461.2,294.6c-1.4-15.7,3.9-31.9,15.9-43.9
			c1.2-1.2,2.5-2.4,3.8-3.5c15,2.3,30.9-1.7,43.2-12c3.1,0.5,6.1,1.2,9.1,2.2l16.5,16.5l-64.7,64.6L461.2,294.6z"/>
		<path fill="#FFFFFF" stroke="#000000" stroke-width="3" stroke-miterlimit="10" d="M450.8,232c21.3,21.3,55.9,21.3,77.2,0
			l11.1,11.1c-27.5,27.5-72.1,27.7-99.8,0.3L450.8,232z"/>
		<path fill="#FEDE09" stroke="#000000" stroke-width="3" stroke-miterlimit="10" d="M527.6,263.4c-8.8-8.8-8.8-23,0-31.8
			s23-8.8,31.8,0"/>
		<path fill="#FEDE09" stroke="#000000" stroke-width="3" stroke-miterlimit="10" d="M475.7,315.6l86.7-86.6l9.8,9.8l0,0
			c0.1,0.1,0.1,0.1,0.2,0.2c2.2,2.2,2.2,5.7,0,7.9s-5.7,2.2-7.9,0c-0.1-0.1-0.1-0.1-0.2-0.2l0,0c0.1,0.1,0.1,0.1,0.2,0.1
			c2.2,2.2,2.2,5.7,0,7.9c-2.2,2.2-5.7,2.2-7.9,0c-0.1-0.1-0.1-0.1-0.1-0.2l0,0c0.1,0.1,0.1,0.1,0.2,0.1c2.2,2.2,2.2,5.7,0,7.9
			c-2.2,2.2-5.7,2.2-7.9,0c-0.1-0.1-0.1-0.1-0.1-0.2l0,0c2,2.2,2,5.6-0.1,7.7c-2.1,2.1-5.5,2.2-7.7,0.2l0,0c2,2.2,2,5.6-0.1,7.7
			c-2.1,2.1-5.5,2.2-7.7,0.2l0,0c2,2.2,2,5.6-0.2,7.7c-1.8,1.8-4.6,2.1-6.7,0.9c1.5,2.2,1.3,5.2-0.6,7.1c-2.2,2.2-5.7,2.2-7.9,0
			c-0.1-0.1-0.1-0.1-0.2-0.2l0,0c0.1,0.1,0.1,0.1,0.2,0.1c2.2,2.2,2.2,5.7,0,7.9c-2.2,2.2-5.7,2.2-7.9,0c-0.1-0.1-0.1-0.1-0.2-0.2
			l0,0c0.1,0.1,0.1,0.1,0.2,0.2c2.2,2.2,2.2,5.7,0,7.9c-2.2,2.2-5.7,2.2-7.9,0c-0.1-0.1-0.1-0.1-0.2-0.2l0,0
			c0.1,0.1,0.1,0.1,0.2,0.2c2.2,2.2,2.2,5.7,0,7.9c-2.2,2.2-5.7,2.2-7.9,0c-0.1-0.1-0.1-0.1-0.2-0.2l0,0c0.1,0.1,0.1,0.1,0.2,0.1
			c2.2,2.2,2.2,5.7,0,7.9c-2.2,2.2-5.7,2.2-7.9,0c-0.1-0.1-0.1-0.1-0.2-0.2l0,0L475.7,315.6z"/>
		<line fill="none" stroke="#000000" stroke-width="3" stroke-miterlimit="10" x1="521.7" y1="257.3" x2="508.4" y2="244"/>
		<line fill="none" stroke="#000000" stroke-width="3" stroke-miterlimit="10" x1="508.4" y1="244" x2="504.1" y2="262.2"/>
		<line fill="none" stroke="#000000" stroke-width="3" stroke-miterlimit="10" x1="504.1" y1="262.2" x2="489.2" y2="247.4"/>
		<line fill="none" stroke="#000000" stroke-width="3" stroke-miterlimit="10" x1="489.2" y1="247.4" x2="486.3" y2="263.8"/>
		<line fill="none" stroke="#000000" stroke-width="3" stroke-miterlimit="10" x1="486.3" y1="263.8" x2="464" y2="241.6"/>
		<line fill="none" stroke="#000000" stroke-width="3" stroke-miterlimit="10" x1="464" y1="241.6" x2="459.5" y2="257.4"/>
		<line fill="none" stroke="#000000" stroke-width="3" stroke-miterlimit="10" x1="512.8" y1="259.7" x2="499.6" y2="246.5"/>
		<line fill="none" stroke="#000000" stroke-width="3" stroke-miterlimit="10" x1="499.6" y1="246.5" x2="493.9" y2="262.6"/>
		<line fill="none" stroke="#000000" stroke-width="3" stroke-miterlimit="10" x1="493.9" y1="262.6" x2="479.3" y2="248"/>
		<line fill="none" stroke="#000000" stroke-width="3" stroke-miterlimit="10" x1="479.3" y1="248" x2="467.4" y2="260.5"/>
		<line fill="none" stroke="#000000" stroke-width="3" stroke-miterlimit="10" x1="455.4" y1="236.6" x2="467.4" y2="260.5"/>
		<line fill="none" stroke="#000000" stroke-width="3" stroke-miterlimit="10" x1="455.4" y1="236.6" x2="448" y2="250.8"/>
		<circle fill="none" stroke="#000000" stroke-width="3" stroke-miterlimit="10" cx="440.5" cy="247.8" r="11.5"/>
		<path fill="none" stroke="#000000" stroke-width="3" stroke-miterlimit="10" d="M449.1,240.9c-4.5-4.5-4.5-11.8,0-16.3
			c4.5-4.5,11.8-4.5,16.3,0c4.5,4.5,4.5,11.8,0,16.3C460.9,245.4,453.6,245.4,449.1,240.9z"/>
	</g>
</g>
<line fill="none" stroke="#000000" stroke-width="3" stroke-miterlimit="10" x1="170.4" y1="243.6" x2="-0.1" y2="243.6"/>
<g>
	<circle fill="#FFFFFF" stroke="#000000" stroke-width="3" stroke-miterlimit="10" cx="170.4" cy="226.9" r="16.7"/>
	<path fill="#1BBDE6" stroke="#000000" stroke-width="3" stroke-miterlimit="10" d="M170.5,234.4c4.1,0,7.5-3.4,7.4-7.6
		s-3.4-7.5-7.6-7.5c-4.2,0-7.5,3.4-7.5,7.6C163,231.1,166.4,234.4,170.5,234.4z"/>
</g>
<g>
	<circle fill="#FFFFFF" stroke="#000000" stroke-width="3" stroke-miterlimit="10" cx="203.8" cy="126" r="16.7"/>
	<circle fill="#1BBDE6" stroke="#000000" stroke-width="3" stroke-miterlimit="10" cx="203.8" cy="126" r="7.5"/>
</g>
<line fill="none" stroke="#000000" stroke-width="3" stroke-miterlimit="10" x1="187.1" y1="126.1" x2="187.1" y2="226.9"/>
<line fill="none" stroke="#000000" stroke-width="3" stroke-miterlimit="10" x1="203.8" y1="109.3" x2="283.8" y2="104.9"/>
</svg>
