<?xml version="1.0" encoding="utf-8"?>
<!-- Generator: Adobe Illustrator 16.0.0, SVG Export Plug-In . SVG Version: 6.00 Build 0)  -->
<!DOCTYPE svg PUBLIC "-//W3C//DTD SVG 1.1//EN" "http://www.w3.org/Graphics/SVG/1.1/DTD/svg11.dtd">
<svg version="1.1" id="Layer_1" xmlns="http://www.w3.org/2000/svg" xmlns:xlink="http://www.w3.org/1999/xlink" x="0px" y="0px"
	 width="1139.2px" height="500px" viewBox="0 0 1139.2 500" enable-background="new 0 0 1139.2 500" xml:space="preserve">
<g>
	<line fill="none" stroke="#000000" stroke-width="3" stroke-miterlimit="10" x1="836.3" y1="243.6" x2="1426.3" y2="243.6"/>
	<g>
		<path fill="#E5E5E5" stroke="#000000" stroke-width="3" stroke-miterlimit="10" d="M916.7,299c15.8-3.6,23.5,7.2,25.5,14.2
			l22.3,110.2c2,7.1-2.1,14.4-9.2,16.4c-0.6,0.2-1.2,0.3-1.7,0.4v0.1h-20.3c-4.8,0-8.6-3.9-8.6-8.6c0-4.8,3.9-8.6,8.6-8.6h3.2
			l-33.6-103.9C900.8,312.1,905,302.7,916.7,299z"/>
		<path fill="#FFFFFF" stroke="#000000" stroke-width="3" stroke-linecap="square" stroke-miterlimit="10" d="M957.2,287
			c0.9,6.3,6.8,10.7,13.1,9.8l0,0c6.3-0.9,10.7-6.8,9.8-13.1l-7.3-49.7c-0.9-6.3-6.8-10.7-13.1-9.8l0,0c-6.3,0.9-10.7,6.8-9.8,13.1
			L957.2,287z"/>
		<path fill="#E5E5E5" stroke="#000000" stroke-width="3" stroke-miterlimit="10" d="M771.6,419.5h7.9l5.7-124.9l31,5.7L800.3,427
			c-0.3,5.5-5.1,9.7-10.8,9.5c-0.1,0-0.2,0-0.3,0h-17.6c-4.7,0-8.6-3.8-8.6-8.6S766.9,419.5,771.6,419.5z"/>
		<path fill="#FFFFFF" stroke="#000000" stroke-width="3" stroke-linecap="square" stroke-miterlimit="10" d="M745.4,207.9H811
			c0,17.2,25.8,62,60.3,62c34.4,0,70.7,0.9,82.7,0.9s40.3,7.7,40.3,31.9S971.2,333,971.2,333s-54.6,18.8-119.9,42.4
			c-65.3,23.6-73.4-45.5-73.4-45.5s-7.2-39.4-12.2-69.8c-4.2-25.4-18.3-26.5-20.1-26.5h-0.2V207.9z"/>
		<g>
			<rect x="726.5" y="218.7" fill="#F15A57" stroke="#000000" stroke-width="3" stroke-miterlimit="10" width="17.1" height="8.1"/>
			<g>
				<path fill="#FFFFFF" stroke="#000000" stroke-width="3" stroke-linecap="square" stroke-miterlimit="10" d="M731.8,223.9"/>
				<path fill="#FFFFFF" stroke="#000000" stroke-width="3" stroke-linecap="square" stroke-miterlimit="10" d="M745.6,233.5h-0.2
					h-27.8c-2.7,0-4.8-2.2-4.8-4.8c0-2.7,2.2-4.8,4.8-4.8h14.1c7.2-0.9,12.7-6.9,12.7-14.3c0-4.9-2.5-9.3-6.3-11.9h22.2"/>
			</g>
			<path fill="#F15A57" stroke="#000000" stroke-width="3" stroke-linecap="square" stroke-miterlimit="10" d="M733,223.7v12.1
				c0,3.6-2.9,6.5-6.5,6.5l0,0c-3.6,0-6.5-2.9-6.5-6.5v-10.6c0-3.6,2.9-6.5,6.5-6.5l0,0"/>
			<line fill="none" stroke="#000000" stroke-width="3" stroke-miterlimit="10" x1="726.5" y1="218.7" x2="726.5" y2="234.2"/>
		</g>
		<g>
			<path fill="#FFFFFF" stroke="#000000" stroke-width="3" stroke-miterlimit="10" d="M769.4,178.8c0.1,0.8,0.2,1.6,0.2,2.5v6.7
				c0,11-8.9,20-20,20h-33.8c-11,0-20-8.9-20-20v-6.7c0-0.8,0.1-1.7,0.2-2.5H769.4z"/>
			<path fill="#F15A57" stroke="#000000" stroke-width="3" stroke-miterlimit="10" d="M756,161.3h42.4H811c5.6,0,11.7,0,16.5,0
				c9.1,0,11.6,5.7,5.6,12.6L811,199.4v8.5h-55c-12.9,0-23.3-10.4-23.3-23.3C732.7,171.8,743.1,161.3,756,161.3z"/>
			<path d="M700.1,194.7c-0.4,0-0.7,0.1-1.1,0.1c-6.4,0-11.6-5.2-11.6-11.6c0-2.6,0.8-4.9,2.3-6.9h10.5V194.7z"/>
			<path fill="none" stroke="#000000" stroke-width="3" stroke-miterlimit="10" d="M820.2,171c-5,0-9.1,4.1-9.1,9.1"/>
			<line fill="none" stroke="#000000" stroke-width="3" stroke-miterlimit="10" x1="811.2" y1="200.7" x2="811.2" y2="180.1"/>
			<line fill="none" stroke="#000000" stroke-width="3" stroke-miterlimit="10" x1="820.2" y1="171" x2="823.8" y2="171"/>
			<circle cx="731.5" cy="198" r="1.2"/>
			<circle cx="722.3" cy="201.9" r="1.2"/>
			<circle cx="717.1" cy="194.6" r="1.2"/>
			<path d="M707.4,199.2c0,0.7,0.5,1.2,1.2,1.2c0.6,0,1.2-0.5,1.2-1.2c0-0.7-0.5-1.2-1.2-1.2C707.9,198,707.4,198.6,707.4,199.2z"/>
			<circle fill="#FFFFFF" stroke="#000000" stroke-width="3" stroke-miterlimit="10" cx="761.8" cy="189.4" r="10.5"/>
			<circle cx="757.2" cy="192.3" r="2.4"/>
		</g>
		<path fill="#F15A57" stroke="#000000" stroke-width="3" stroke-miterlimit="10" d="M871.3,270c34.4,0,70.7,0.9,82.7,0.9
			c0.8,0,1.7,0,2.7,0.1c-8.2,12.8-22.8,34.1-36.2,45.9c-20.1,17.7-33.3,28.5-52.7-5.4c-11.3-19.9-21.8-40.7-28.4-54.6
			C848.5,264.6,859.4,270,871.3,270z"/>
		<path fill="#FFFFFF" stroke="#000000" stroke-width="3" stroke-linecap="square" stroke-miterlimit="10" d="M994.3,302.8
			l23.1,136.8c2.2,7.8-2.3,15.8-10.1,18c-0.8,0.2-1.6,0.4-2.3,0.4c0,0.1,0,0.1,0,0.1l-1.8,0c-0.1,0-0.2,0-0.3,0l-17.4-0.1
			c-4.9,0-8.9-4-8.9-8.9c0-4.9,4-8.9,8.9-8.9h1.5l-37.2-115.2"/>
		<path fill="#FFFFFF" stroke="#000000" stroke-width="3" stroke-linecap="square" stroke-miterlimit="10" d="M851.9,305l-18.6,142
			c-0.3,5.1-3.9,9.2-8.6,10.6c-0.9,0.3-1.9,0.6-3,0.6h-17.6c-4.7,0-8.6-3.8-8.6-8.6c0-4.7,3.8-8.6,8.6-8.6h4.7l6.8-142.8"/>
	</g>
	
		<rect x="752.9" y="249.8" transform="matrix(0.9536 -0.301 0.301 0.9536 -40.4149 251.4268)" fill="#1BBDE6" stroke="#000000" stroke-width="3" stroke-miterlimit="10" width="85.6" height="14.1"/>
	<g>
		<g>
			<g>
				<circle fill="#ABABAB" stroke="#000000" stroke-width="3" stroke-miterlimit="10" cx="303" cy="252.7" r="60.2"/>
				<g>
					
						<rect x="149" y="216.1" fill="#FEDA1F" stroke="#000000" stroke-width="3" stroke-miterlimit="10" width="294.8" height="183.1"/>
					<g>
						<g>
							
								<rect x="169.1" y="234" fill="#1BBDE6" stroke="#000000" stroke-width="3" stroke-miterlimit="10" width="184.5" height="150.8"/>
							<g>
								<defs>
									<path id="SVGID_1_" d="M340.8,358.9c0,7.7-6.2,13.9-14,13.9h-131c-7.7,0-14-6.2-14-13.9v-99.2c0-7.7,6.2-14,14-14h131
										c7.7,0,14,6.2,14,14V358.9z"/>
								</defs>
								<use xlink:href="#SVGID_1_"  overflow="visible" fill="#4A494A"/>
								<clipPath id="SVGID_2_">
									<use xlink:href="#SVGID_1_"  overflow="visible"/>
								</clipPath>
								<use xlink:href="#SVGID_1_"  overflow="visible" fill="none" stroke="#000000" stroke-width="3" stroke-miterlimit="10"/>
							</g>
						</g>
						<g>
							<g>
								<circle fill="none" stroke="#000000" stroke-width="3" stroke-miterlimit="10" cx="398" cy="372.5" r="4.1"/>
								<g>
									
										<rect x="365.9" y="233.9" fill="#1BBDE6" stroke="#000000" stroke-width="3" stroke-miterlimit="10" width="57.7" height="150.8"/>
									<circle fill="#EB5D54" stroke="#000000" stroke-width="3" stroke-miterlimit="10" cx="412.7" cy="372.5" r="4.1"/>
									<circle fill="#71BF46" stroke="#000000" stroke-width="3" stroke-miterlimit="10" cx="398.9" cy="372.5" r="4.1"/>
								</g>
							</g>
							<g>
								<circle fill="#FFFFFF" stroke="#000000" stroke-width="3" stroke-miterlimit="10" cx="394.8" cy="299.8" r="16"/>
								<path fill="#FEDE0C" stroke="#000000" stroke-width="3" stroke-miterlimit="10" d="M406.1,310.4c1,1.4,0.7,3.3-0.7,4.3l0,0
									c-1.4,1-3.3,0.7-4.3-0.7l-17.6-24.8c-1-1.4-0.7-3.3,0.7-4.3l0,0c1.4-1,3.3-0.7,4.3,0.7L406.1,310.4z"/>
							</g>
							<g>
								<circle fill="#FFFFFF" stroke="#000000" stroke-width="3" stroke-miterlimit="10" cx="394.8" cy="258.1" r="16"/>
								<path fill="#FEDE0C" stroke="#000000" stroke-width="3" stroke-miterlimit="10" d="M383,268.1c-1.5,0.8-3.4,0.3-4.2-1.2l0,0
									c-0.8-1.5-0.3-3.4,1.2-4.2l26.6-14.6c1.5-0.8,3.4-0.3,4.2,1.2l0,0c0.8,1.5,0.3,3.4-1.2,4.2L383,268.1z"/>
							</g>
							<g>
								
									<line fill="none" stroke="#000000" stroke-width="3" stroke-linecap="round" stroke-miterlimit="10" x1="416.3" y1="325.4" x2="373.3" y2="325.4"/>
								
									<line fill="none" stroke="#000000" stroke-width="3" stroke-linecap="round" stroke-miterlimit="10" x1="416.3" y1="331.9" x2="373.3" y2="331.9"/>
								
									<line fill="none" stroke="#000000" stroke-width="3" stroke-linecap="round" stroke-miterlimit="10" x1="416.3" y1="338.4" x2="373.3" y2="338.4"/>
								
									<line fill="none" stroke="#000000" stroke-width="3" stroke-linecap="round" stroke-miterlimit="10" x1="416.3" y1="345" x2="373.3" y2="345"/>
								
									<line fill="none" stroke="#000000" stroke-width="3" stroke-linecap="round" stroke-miterlimit="10" x1="416.3" y1="351.5" x2="373.3" y2="351.5"/>
								
									<line fill="none" stroke="#000000" stroke-width="3" stroke-linecap="round" stroke-miterlimit="10" x1="416.3" y1="358" x2="373.3" y2="358"/>
							</g>
						</g>
					</g>
				</g>
				
					<rect x="155.3" y="399.5" fill="#EA5C5A" stroke="#000000" stroke-width="3" stroke-miterlimit="10" width="282.2" height="13.7"/>
				<polygon fill="#EA5C5A" stroke="#000000" stroke-width="3" stroke-miterlimit="10" points="164.5,464.9 152.8,464.9 
					167.3,413.2 179,413.2 				"/>
				<polygon fill="#EA5C5A" stroke="#000000" stroke-width="3" stroke-miterlimit="10" points="425.6,464.9 437.3,464.9 
					422.7,413.2 411,413.2 				"/>
			</g>
			<g>
				<path fill="none" stroke="#000000" stroke-width="3" stroke-miterlimit="10" d="M346.3,156l-15.8-10.2c-3.2-2-4.1-6.3-2.1-9.4
					l0,0c2-3.2,6.3-4.1,9.4-2.1l16.9,10.8"/>
				<path fill="none" stroke="#000000" stroke-width="3" stroke-miterlimit="10" d="M346.3,156l16.4,10.5c3.2,2,4.1,6.3,2.1,9.4l0,0
					c-2,3.2-6.3,4.1-9.4,2.1l-4.5-2.9"/>
				<path fill="none" stroke="#000000" stroke-width="3" stroke-miterlimit="10" d="M320.9,195.2l14.4-22l0,0c2-3.2,6.3-4.1,9.4-2.1
					l6.1,3.9"/>
				<path fill="none" stroke="#000000" stroke-width="3" stroke-miterlimit="10" d="M365.6,135.9l1.1,0.7c3.2,2,4.1,6.3,2.1,9.4l0,0
					c-2,3.2-6.3,4.1-9.4,2.1l-4.5-2.9"/>
				<path fill="none" stroke="#000000" stroke-width="3" stroke-miterlimit="10" d="M363.8,120.7l-2.7,4.2l0,0
					c-2,3.2-1.1,7.4,2.1,9.4l2.4,1.5"/>
			</g>
			<circle fill="#FFFFFF" stroke="#000000" stroke-width="3" stroke-miterlimit="10" cx="365.8" cy="117.6" r="4.4"/>
			<g>
				<path fill="none" stroke="#000000" stroke-width="3" stroke-miterlimit="10" d="M274.4,124.7l9.4-3c1.9-0.6,2.9-2.6,2.3-4.5l0,0
					c-0.6-1.9-2.6-2.9-4.5-2.3l-10.1,3.2"/>
				<path fill="none" stroke="#000000" stroke-width="3" stroke-miterlimit="10" d="M274.4,124.7l-9.7,3.1c-1.9,0.6-2.9,2.6-2.3,4.5
					l0,0c0.6,1.9,2.6,2.9,4.5,2.3l2.7-0.9"/>
				<path fill="none" stroke="#000000" stroke-width="3" stroke-miterlimit="10" d="M296.4,192.5L277.7,135l0,0
					c-0.6-1.9-2.6-2.9-4.5-2.3l-3.6,1.2"/>
				<path fill="none" stroke="#000000" stroke-width="3" stroke-miterlimit="10" d="M267.3,111.9l-0.6,0.2c-1.9,0.6-2.9,2.6-2.3,4.5
					l0,0c0.6,1.9,2.6,2.9,4.5,2.3l2.7-0.9"/>
				<path fill="none" stroke="#000000" stroke-width="3" stroke-miterlimit="10" d="M267.8,96.8l3.2,10.1l0,0
					c0.6,1.9-0.4,3.9-2.3,4.5l-1.4,0.5"/>
			</g>
			<circle fill="#FFFFFF" stroke="#000000" stroke-width="3" stroke-miterlimit="10" cx="266.5" cy="92.5" r="4.4"/>
		</g>
		<g opacity="0.2">
			
				<line fill="none" stroke="#000000" stroke-width="3" stroke-linecap="round" stroke-miterlimit="10" x1="172.8" y1="157.9" x2="172.8" y2="176.4"/>
			
				<line fill="none" stroke="#000000" stroke-width="3" stroke-linecap="round" stroke-miterlimit="10" x1="182.1" y1="167.2" x2="163.6" y2="167.2"/>
		</g>
		
			<circle opacity="0.2" fill="none" stroke="#000000" stroke-width="3" stroke-linecap="round" stroke-miterlimit="10" cx="233.7" cy="180.1" r="6.8"/>
		<g opacity="0.2">
			
				<line fill="none" stroke="#000000" stroke-width="3" stroke-linecap="round" stroke-miterlimit="10" x1="415.2" y1="169" x2="402.1" y2="156"/>
			
				<line fill="none" stroke="#000000" stroke-width="3" stroke-linecap="round" stroke-miterlimit="10" x1="402.1" y1="169" x2="415.2" y2="156"/>
		</g>
	</g>
	<g>
		<rect x="18.5" y="218.1" fill="#4A494A" width="52.9" height="75"/>
		<g>
			<path d="M69.9,219.6v72H20v-72H69.9 M72.9,216.6H17v78h55.9V216.6L72.9,216.6z"/>
		</g>
	</g>
	<g>
		<rect x="1.5" y="235.4" fill="#71BF46" width="16" height="40.3"/>
		<g>
			<path d="M16,236.9v37.3H3v-37.3H16 M19,233.9H0v43.3h19V233.9L19,233.9z"/>
		</g>
	</g>
	<path fill-rule="evenodd" clip-rule="evenodd" fill="#FEDE0C" stroke="#000000" stroke-width="3" stroke-miterlimit="10" d="
		M56.8,235.5c-1.2,1.8-2.4,3.7-3.7,5.4c-2,2.9-4.1,5.7-6.5,9c3.4,0,6.4,0,9.9,0c-7.7,8.9-15,17.4-22.4,25.9
		c-0.1-0.1-0.2-0.1-0.3-0.2c2.5-5.7,5-11.5,7.5-17.5c-2.9,0-5.6,0-8.3,0c2.9-7.7,5.6-15.1,8.4-22.6
		C46.6,235.5,51.7,235.5,56.8,235.5z"/>
	<path fill="none" stroke="#000000" stroke-width="3" stroke-miterlimit="10" d="M113.8,345.8v98.1c0,11.6-9.4,21-21,21h-24
		c-11.6,0-21-9.4-21-21V294.6"/>
	<path fill="none" stroke="#000000" stroke-width="3" stroke-miterlimit="10" d="M113.8,392.2v-76.6c0-11.6,9.4-21,21-21h11.5"/>
	<g>
		<defs>
			<path id="SVGID_3_" d="M339.6,358.2c0,7.6-6.2,13.8-13.8,13.8H196.6c-7.6,0-13.8-6.2-13.8-13.8v-97.9c0-7.6,6.2-13.8,13.8-13.8
				h129.2c7.6,0,13.8,6.2,13.8,13.8V358.2z"/>
		</defs>
		<clipPath id="SVGID_4_">
			<use xlink:href="#SVGID_3_"  overflow="visible"/>
		</clipPath>
		<g id="_x30_4vhpQ.tif" clip-path="url(#SVGID_4_)">
			
				<image overflow="visible" width="325" height="217" id="Layer_0_2_" xlink:href="94BD55842B6471B4.png"  transform="matrix(0.5769 0 0 0.5769 160.8135 246.6226)">
			</image>
		</g>
	</g>
</g>
</svg>
