<?xml version="1.0" encoding="utf-8"?>
<!-- Generator: Adobe Illustrator 16.0.0, SVG Export Plug-In . SVG Version: 6.00 Build 0)  -->
<!DOCTYPE svg PUBLIC "-//W3C//DTD SVG 1.1//EN" "http://www.w3.org/Graphics/SVG/1.1/DTD/svg11.dtd">
<svg version="1.1" id="Layer_1" xmlns="http://www.w3.org/2000/svg" xmlns:xlink="http://www.w3.org/1999/xlink" x="0px" y="0px"
	 width="718.6px" height="500px" viewBox="0 0 718.6 500" enable-background="new 0 0 718.6 500" xml:space="preserve">
<line fill="none" stroke="#000000" stroke-width="3" stroke-miterlimit="10" x1="229.3" y1="207.7" x2="152.2" y2="445.8"/>
<line fill="none" stroke="#000000" stroke-width="3" stroke-miterlimit="10" x1="229.3" y1="207.7" x2="302.2" y2="445.8"/>
<g>
	
		<path fill="#FFFFFF" stroke="#000000" stroke-width="3" stroke-linecap="round" stroke-linejoin="round" stroke-miterlimit="10" d="
		M263.2,370.3c0,3.9,4.1,3.5,4.1,3.5c1.8-0.8,3.8-1.2,5.9-1.2c8.4,0,15.2,6.8,15.2,15.2c0,8.4-6.8,15.2-15.2,15.2
		c-4.9,0-9.2-2.3-12-5.8 M273.2,381.4c-3.5,0-6.4,2.9-6.4,6.4c0,3.5,2.9,6.4,6.4,6.4c3.5,0,6.4-2.9,6.4-6.4
		C279.6,384.3,276.7,381.4,273.2,381.4z"/>
	
		<path fill="#FFFFFF" stroke="#000000" stroke-width="3" stroke-linecap="round" stroke-linejoin="round" stroke-miterlimit="10" d="
		M254.8,412.8c19.3,1,33,2.8,40.1,4c7.1,1.1,12.1,7.8,0.2,10.3l-6.1,1.8c-6.6,1.9-12.5,3.3-14.5,8.5c-0.8,1.9-2.1,4.5-5.2,5.2
		c-8.2,1.9-20.6,2.9-40.8,3.3c-20.2-0.4-32.6-1.4-40.8-3.3c-3.1-0.7-4.5-3.3-5.2-5.2c-2-5.2-7.8-6.5-14.5-8.5l-6.1-1.8
		c-11.8-2.5-6.8-9.2,0.2-10.3c7.1-1.1,20.8-3,40.1-4"/>
	
		<path fill="#FFFFFF" stroke="#000000" stroke-width="3" stroke-linecap="round" stroke-linejoin="round" stroke-miterlimit="10" d="
		M248.2,420c0,0,14.8-10,15-48c0,0,0.2-4.3-0.8-5.7c-1.2-1.6-3.6-1.5-3.6-1.5h-60.7c0,0-2.4-0.2-3.6,1.5c-1,1.4-0.8,5.7-0.8,5.7
		c0.2,38,15.7,48.7,15.7,48.7s0.3,2.4,19,2.6C247.3,423.5,248.2,420,248.2,420z"/>
	
		<rect x="220.3" y="377.4" fill="#F15A54" stroke="#000000" stroke-width="3" stroke-linecap="round" stroke-linejoin="round" stroke-miterlimit="10" width="16.5" height="16.5"/>
	<path fill="none" stroke="#000000" stroke-width="3" stroke-linecap="round" stroke-linejoin="round" stroke-miterlimit="10" d="
		M292.1,420.2c0,3.4-27.6,7.3-63.5,7.3c-27.7,0-63.5-3.6-63.5-7.3"/>
	<g>
		<path fill="none" stroke="#000000" stroke-width="3" stroke-linecap="round" stroke-linejoin="round" stroke-miterlimit="10" d="
			M196.3,423.2c0,0,6.7-1.1,10.9-4.3"/>
		<path fill="none" stroke="#000000" stroke-width="3" stroke-linecap="round" stroke-linejoin="round" stroke-miterlimit="10" d="
			M260.8,423.2c0,0-6.7-1.1-10.9-4.3"/>
	</g>
</g>
<g>
	<rect x="132.3" y="447.3" fill="#EA5C5A" width="193.7" height="13.5"/>
	<path d="M324.5,448.8v10.5H133.8v-10.5H324.5 M327.5,445.8H130.8v16.5h196.7V445.8L327.5,445.8z"/>
</g>
<line fill="none" stroke="#000000" stroke-width="3" stroke-miterlimit="10" x1="444.7" y1="69.9" x2="444.7" y2="240.5"/>
<g>
	<circle fill="#FFFFFF" stroke="#000000" stroke-width="3" stroke-miterlimit="10" cx="428" cy="69.9" r="16.7"/>
	<circle fill="#1BBDE6" stroke="#000000" stroke-width="3" stroke-miterlimit="10" cx="428" cy="69.9" r="7.5"/>
</g>
<g>
	<circle fill="#FFFFFF" stroke="#000000" stroke-width="3" stroke-miterlimit="10" cx="246" cy="69.9" r="16.7"/>
	<circle fill="#1BBDE6" stroke="#000000" stroke-width="3" stroke-miterlimit="10" cx="246" cy="69.9" r="7.5"/>
</g>
<line fill="none" stroke="#000000" stroke-width="3" stroke-miterlimit="10" x1="246" y1="53.2" x2="428" y2="53.2"/>
<line fill="none" stroke="#000000" stroke-width="3" stroke-miterlimit="10" x1="229.3" y1="207.7" x2="229.3" y2="69.9"/>
<g>
	<path fill="none" stroke="#342512" stroke-width="13" stroke-miterlimit="10" d="M211.5,284.1c0,0,18.3-27.8,17.8,79.8"/>
	<g>
		<path fill="#DCE4E5" d="M93.1,179.7c7.3-2.3,16.4-1.6,20.7-0.3c1.3,0.4,4.7,3.5,9.2,8.3l0,0.1l12.1,12.1l36.5,21.6l0.9,0.9
			l17.1-23c0,0,5,2.5,9.2,6.7c3.9,3.9,6.7,9.2,6.7,9.2l-23,17.1l0.6,0.6l16.7,31.6l13.9,13.9l0,0c9.1,9.2,6.6,15.4,4.6,14.1
			c-2.1-1.4-11.7-1.2-11.7-1.2l-39.4,5.9l-18.7,15.1l-1.4-1.4l-9.2,9.2l-1.7-1.7l-3.4,3.4l3,3l-39.1,53.5l-15.5-6.5L56,349.1
			l-22.8-25.3l-6.5-15.5l53.5-39.1l3,3l3.4-3.4l-1.7-1.7l9.2-9.2l-1.7-1.7l30-39.1l-1-0.7l-2-4.3l-1.6,10.5
			c-3.3-3.3-8.2-10.1-9.4-21.9c-1.1-10.8-13.3-9.9-14.8,0.9c-0.3,2.4-0.1,5.8-3.7,14c-2.5,5.7-8.9,13.5-10.2,19.5
			c-1.1,5,4.3,8.4,4.3,10.4c0.1,3.8-13.3,4.1-13.5-0.5C70.5,239.3,75.1,185.3,93.1,179.7z"/>
		<g>
			<g>
				
					<polyline fill="none" stroke="#000000" stroke-width="3" stroke-linecap="round" stroke-linejoin="round" stroke-miterlimit="10" points="
					56,349.1 33.2,323.8 26.7,308.3 80.2,269.2 135.9,324.9 96.8,378.4 81.3,371.9 56,349.1 				"/>
				<g>
					
						<line fill="none" stroke="#000000" stroke-width="3" stroke-linecap="round" stroke-linejoin="round" stroke-miterlimit="10" x1="81.1" y1="371.7" x2="125.4" y2="314.4"/>
					
						<line fill="none" stroke="#000000" stroke-width="3" stroke-linecap="round" stroke-linejoin="round" stroke-miterlimit="10" x1="33.4" y1="324" x2="90.7" y2="279.7"/>
				</g>
				
					<line fill="none" stroke="#000000" stroke-width="3" stroke-linecap="round" stroke-linejoin="round" stroke-miterlimit="10" x1="56" y1="349.1" x2="108.1" y2="297.1"/>
			</g>
			
				<polyline fill="none" stroke="#000000" stroke-width="3" stroke-linecap="round" stroke-linejoin="round" stroke-miterlimit="10" points="
				94.1,257.9 84.9,267.1 138,320.2 147.2,311 			"/>
			<g>
				
					<line fill="none" stroke="#000000" stroke-width="3" stroke-linecap="round" stroke-linejoin="round" stroke-miterlimit="10" x1="132.9" y1="321.9" x2="136.3" y2="318.5"/>
				
					<line fill="none" stroke="#000000" stroke-width="3" stroke-linecap="round" stroke-linejoin="round" stroke-miterlimit="10" x1="83.2" y1="272.2" x2="86.6" y2="268.8"/>
			</g>
		</g>
		
			<polyline fill="none" stroke="#000000" stroke-width="3" stroke-linecap="round" stroke-linejoin="round" stroke-miterlimit="10" points="
			167.4,297.3 200,264.7 183.3,233.1 171.8,221.5 135.3,200 		"/>
		<path fill="none" stroke="#000000" stroke-width="3" stroke-linecap="round" stroke-linejoin="round" stroke-miterlimit="10" d="
			M132.7,296.5l53.6-45.5l-3.9-18.4l23.2-17.3c0,0-2.7-5.3-6.7-9.2c-4.2-4.2-9.2-6.7-9.2-6.7l-17.3,23.2l-18.4-3.9l-45.5,53.6"/>
		
			<polyline fill="none" stroke="#000000" stroke-width="3" stroke-linecap="round" stroke-linejoin="round" stroke-miterlimit="10" points="
			213.9,278.6 123.1,187.8 112.8,198.1 121.5,216.4 		"/>
		<path fill="none" stroke="#000000" stroke-width="3" stroke-linecap="round" stroke-linejoin="round" stroke-miterlimit="10" d="
			M206.7,291.4c0,0,9.6-0.1,11.7,1.2c2,1.3,4.7-5.2-5.2-14.8l-77.7-77.7l-43,56l56.2,56.2l18.7-15.1L206.7,291.4z"/>
		<path fill="none" stroke="#000000" stroke-width="3" stroke-linecap="round" stroke-linejoin="round" stroke-miterlimit="10" d="
			M117.1,194.4c-0.7,2.1-0.3,4.5,1.4,6.2c2.3,2.3,6.1,2.3,8.5,0l3.8,3.8"/>
		<path fill="none" stroke="#000000" stroke-width="3" stroke-linecap="round" stroke-linejoin="round" stroke-miterlimit="10" d="
			M117.9,222.6c-3.3-3.3-8.2-10.1-9.4-21.9c-1.1-10.8-13.3-9.9-14.8,0.9c-0.3,2.4-0.1,5.8-3.7,14c-2.5,5.7-8.9,13.5-10.2,19.5
			c-1.1,5,4.3,8.4,4.3,10.4c0.1,3.8-13.3,4.1-13.5-0.5c-0.2-5.7,4.5-59.7,22.4-65.3c7.3-2.3,16.4-1.6,20.7-0.3
			c1.3,0.4,4.7,3.5,9.2,8.3"/>
	</g>
	<g>
		
			<rect x="49.3" y="295" transform="matrix(-0.7071 0.7071 -0.7071 -0.7071 342.4766 556.3584)" fill="#EA5C5A" width="13.5" height="108.2"/>
		<path d="M22.5,308.2l74.4,74.4l-7.4,7.4l-74.4-74.4L22.5,308.2 M22.5,303.9l-11.7,11.7l78.7,78.7l11.7-11.7L22.5,303.9L22.5,303.9
			z"/>
	</g>
	<circle fill="#71BF46" stroke="#000000" stroke-width="3" stroke-miterlimit="10" cx="48" cy="356.1" r="11.3"/>
</g>
<g>
	
		<rect x="566.8" y="128.5" transform="matrix(-0.1784 0.984 -0.984 -0.1784 943.6915 -243.5937)" fill="#EA5C5A" width="13.5" height="287.3"/>
	<path d="M434.6,241.7l279.7,50.7l-1.9,10.3L432.7,252L434.6,241.7 M432.2,238.2l-2.9,16.2l285.6,51.8l2.9-16.2L432.2,238.2
		L432.2,238.2z"/>
</g>
<g>
	<circle fill="#FFFFFF" stroke="#000000" stroke-width="3" stroke-miterlimit="10" cx="684" cy="248" r="34.6"/>
	<path fill="none" stroke="#EA5C5A" stroke-width="3" stroke-miterlimit="10" d="M649.4,248c0,10.8,4.9,20.4,12.6,26.7
		c7.7-6.3,12.6-16,12.6-26.7s-4.9-20.4-12.6-26.7C654.3,227.6,649.4,237.2,649.4,248z"/>
	<path fill="none" stroke="#EA5C5A" stroke-width="3" stroke-miterlimit="10" d="M718.6,248c0,10.8-4.9,20.4-12.6,26.7
		c-7.7-6.3-12.6-16-12.6-26.7s4.9-20.4,12.6-26.7C713.7,227.6,718.6,237.2,718.6,248z"/>
	<circle fill="none" stroke="#000000" stroke-width="3" stroke-miterlimit="10" cx="684" cy="248" r="34.6"/>
	
		<line fill="none" stroke="#EA5C5A" stroke-width="3" stroke-linecap="round" stroke-miterlimit="10" x1="664.8" y1="229.3" x2="670.8" y2="224.3"/>
	
		<line fill="none" stroke="#EA5C5A" stroke-width="3" stroke-linecap="round" stroke-miterlimit="10" x1="667.8" y1="235" x2="674.6" y2="232.4"/>
	
		<line fill="none" stroke="#EA5C5A" stroke-width="3" stroke-linecap="round" stroke-miterlimit="10" x1="670.8" y1="244.6" x2="677.8" y2="245"/>
	
		<line fill="none" stroke="#EA5C5A" stroke-width="3" stroke-linecap="round" stroke-miterlimit="10" x1="670.8" y1="252.5" x2="677.8" y2="254.6"/>
	
		<line fill="none" stroke="#EA5C5A" stroke-width="3" stroke-linecap="round" stroke-miterlimit="10" x1="667.8" y1="259.8" x2="674.3" y2="263.6"/>
	
		<line fill="none" stroke="#EA5C5A" stroke-width="3" stroke-linecap="round" stroke-miterlimit="10" x1="664.1" y1="267.3" x2="669.6" y2="272.1"/>
	
		<line fill="none" stroke="#EA5C5A" stroke-width="3" stroke-linecap="round" stroke-miterlimit="10" x1="699.6" y1="273.6" x2="704.1" y2="269"/>
	
		<line fill="none" stroke="#EA5C5A" stroke-width="3" stroke-linecap="round" stroke-miterlimit="10" x1="694.5" y1="267.3" x2="699.6" y2="262.8"/>
	
		<line fill="none" stroke="#EA5C5A" stroke-width="3" stroke-linecap="round" stroke-miterlimit="10" x1="690.5" y1="254.6" x2="697" y2="252.5"/>
	
		<line fill="none" stroke="#EA5C5A" stroke-width="3" stroke-linecap="round" stroke-miterlimit="10" x1="688.8" y1="244.6" x2="697" y2="245"/>
	
		<line fill="none" stroke="#EA5C5A" stroke-width="3" stroke-linecap="round" stroke-miterlimit="10" x1="691.8" y1="230.6" x2="699.6" y2="235"/>
	
		<line fill="none" stroke="#EA5C5A" stroke-width="3" stroke-linecap="round" stroke-miterlimit="10" x1="699.6" y1="223.1" x2="704.1" y2="227.5"/>
</g>
<circle fill="#71BF46" stroke="#000000" stroke-width="3" stroke-miterlimit="10" cx="573.5" cy="282.6" r="11.3"/>
</svg>
