<?xml version="1.0" encoding="utf-8"?>
<!-- Generator: Adobe Illustrator 16.0.0, SVG Export Plug-In . SVG Version: 6.00 Build 0)  -->
<!DOCTYPE svg PUBLIC "-//W3C//DTD SVG 1.1//EN" "http://www.w3.org/Graphics/SVG/1.1/DTD/svg11.dtd">
<svg version="1.1" id="Layer_1" xmlns="http://www.w3.org/2000/svg" xmlns:xlink="http://www.w3.org/1999/xlink" x="0px" y="0px"
	 width="1085.5px" height="1000px" viewBox="0 -500 1085.5 1000" enable-background="new 0 -500 1085.5 1000" xml:space="preserve">
<g>
	<rect x="1.5" y="287.4" fill="#EA5C5A" width="1082.5" height="13.5"/>
	<path d="M1082.5,288.9v10.5H3v-10.5H1082.5 M1085.5,285.9H0v16.5h1085.5V285.9L1085.5,285.9z"/>
</g>
<g>
	<rect x="1075.4" y="238.2" fill="#4A494A" width="8.7" height="47.7"/>
	<path d="M1082.5,239.7v44.7h-5.7v-44.7H1082.5 M1085.5,236.7h-11.7v50.7h11.7V236.7L1085.5,236.7z"/>
</g>
<rect y="302.4" opacity="5.000000e-02" enable-background="new    " width="1085.5" height="64.7"/>
<g>
	
		<rect x="21.7" y="250.6" transform="matrix(-0.2572 -0.9664 0.9664 -0.2572 -232.5054 370.1447)" fill="#4A494A" width="8.7" height="47.7"/>
	<path d="M48.3,271.4L5.1,282.9l-1.5-5.5l43.2-11.5L48.3,271.4 M52,273.6l-3-11.3l-49,13l3,11.3L52,273.6L52,273.6z"/>
</g>
<g>
	
		<rect x="1056" y="244.3" transform="matrix(-0.8044 -0.5941 0.5941 -0.8044 1754.1315 1113.6993)" fill="#4A494A" width="8.7" height="47.7"/>
	<path d="M1076,251.8l-26.5,36l-4.6-3.4l26.5-36L1076,251.8 M1080.2,251.2l-9.4-6.9l-30.1,40.8l9.4,6.9L1080.2,251.2L1080.2,251.2z"
		/>
</g>
<g>
	
		<rect x="1031.9" y="248.6" transform="matrix(-0.4556 -0.8902 0.8902 -0.4556 1265.86 1318.9725)" fill="#4A494A" width="8.7" height="47.7"/>
	<path d="M1057.4,264.8l-39.8,20.4l-2.6-5.1l39.8-20.4L1057.4,264.8 M1061.5,266.1l-5.3-10.4l-45.1,23.1l5.3,10.4L1061.5,266.1
		L1061.5,266.1z"/>
</g>
<g>
	
		<rect x="999.3" y="250.6" transform="matrix(-0.2572 -0.9664 0.9664 -0.2572 996.5416 1314.8866)" fill="#4A494A" width="8.7" height="47.7"/>
	<path d="M1026,271.4l-43.2,11.5l-1.5-5.5l43.2-11.5L1026,271.4 M1029.6,273.6l-3-11.3l-49,13l3,11.3L1029.6,273.6L1029.6,273.6z"/>
</g>
<g>
	
		<rect x="966.7" y="250.6" transform="matrix(-0.2572 -0.9664 0.9664 -0.2572 955.5732 1283.3948)" fill="#4A494A" width="8.7" height="47.7"/>
	<path d="M993.4,271.4l-43.2,11.5l-1.5-5.5l43.2-11.5L993.4,271.4 M997.1,273.6l-3-11.3l-49,13l3,11.3L997.1,273.6L997.1,273.6z"/>
</g>
<g>
	
		<rect x="934.1" y="250.6" transform="matrix(-0.2573 -0.9663 0.9663 -0.2573 914.7096 1251.9045)" fill="#4A494A" width="8.7" height="47.7"/>
	<path d="M960.8,271.4l-43.2,11.5l-1.5-5.5l43.2-11.5L960.8,271.4 M964.5,273.6l-3-11.3l-49,13l3,11.3L964.5,273.6L964.5,273.6z"/>
</g>
<g>
	
		<rect x="901.5" y="250.6" transform="matrix(-0.2572 -0.9664 0.9664 -0.2572 873.6364 1220.411)" fill="#4A494A" width="8.7" height="47.7"/>
	<path d="M928.2,271.4L885,282.9l-1.5-5.5l43.2-11.5L928.2,271.4 M931.9,273.6l-3-11.3l-49,13l3,11.3L931.9,273.6L931.9,273.6z"/>
</g>
<g>
	
		<rect x="868.9" y="250.6" transform="matrix(-0.2572 -0.9664 0.9664 -0.2572 832.668 1188.9192)" fill="#4A494A" width="8.7" height="47.7"/>
	<path d="M895.6,271.4l-43.2,11.5l-1.5-5.5l43.2-11.5L895.6,271.4 M899.3,273.6l-3-11.3l-49,13l3,11.3L899.3,273.6L899.3,273.6z"/>
</g>
<g>
	
		<rect x="836.3" y="250.6" transform="matrix(-0.2572 -0.9664 0.9664 -0.2572 791.6996 1157.4272)" fill="#4A494A" width="8.7" height="47.7"/>
	<path d="M863,271.4l-43.2,11.5l-1.5-5.5l43.2-11.5L863,271.4 M866.7,273.6l-3-11.3l-49,13l3,11.3L866.7,273.6L866.7,273.6z"/>
</g>
<g>
	
		<rect x="803.8" y="250.6" transform="matrix(-0.2572 -0.9664 0.9664 -0.2572 750.7311 1125.9354)" fill="#4A494A" width="8.7" height="47.7"/>
	<path d="M830.4,271.4l-43.2,11.5l-1.5-5.5l43.2-11.5L830.4,271.4 M834.1,273.6l-3-11.3l-49,13l3,11.3L834.1,273.6L834.1,273.6z"/>
</g>
<g>
	
		<rect x="771.2" y="250.6" transform="matrix(-0.2572 -0.9664 0.9664 -0.2572 709.7628 1094.4436)" fill="#4A494A" width="8.7" height="47.7"/>
	<path d="M797.9,271.4l-43.2,11.5l-1.5-5.5l43.2-11.5L797.9,271.4 M801.5,273.6l-3-11.3l-49,13l3,11.3L801.5,273.6L801.5,273.6z"/>
</g>
<g>
	
		<rect x="738.6" y="250.6" transform="matrix(-0.2572 -0.9664 0.9664 -0.2572 668.7943 1062.9517)" fill="#4A494A" width="8.7" height="47.7"/>
	<path d="M765.3,271.4l-43.2,11.5l-1.5-5.5l43.2-11.5L765.3,271.4 M768.9,273.6l-3-11.3l-49,13l3,11.3L768.9,273.6L768.9,273.6z"/>
</g>
<g>
	
		<rect x="706" y="250.6" transform="matrix(-0.2572 -0.9664 0.9664 -0.2572 627.8259 1031.4598)" fill="#4A494A" width="8.7" height="47.7"/>
	<path d="M732.7,271.4l-43.2,11.5l-1.5-5.5l43.2-11.5L732.7,271.4 M736.3,273.6l-3-11.3l-49,13l3,11.3L736.3,273.6L736.3,273.6z"/>
</g>
<g>
	
		<rect x="673.4" y="250.6" transform="matrix(-0.2572 -0.9664 0.9664 -0.2572 586.8575 999.968)" fill="#4A494A" width="8.7" height="47.7"/>
	<path d="M700.1,271.4l-43.2,11.5l-1.5-5.5l43.2-11.5L700.1,271.4 M703.8,273.6l-3-11.3l-49,13l3,11.3L703.8,273.6L703.8,273.6z"/>
</g>
<g>
	
		<rect x="640.8" y="250.6" transform="matrix(-0.2572 -0.9664 0.9664 -0.2572 545.8891 968.4761)" fill="#4A494A" width="8.7" height="47.7"/>
	<path d="M667.5,271.4l-43.2,11.5l-1.5-5.5l43.2-11.5L667.5,271.4 M671.2,273.6l-3-11.3l-49,13l3,11.3L671.2,273.6L671.2,273.6z"/>
</g>
<g>
	
		<rect x="608.2" y="250.6" transform="matrix(-0.2572 -0.9664 0.9664 -0.2572 504.9207 936.9843)" fill="#4A494A" width="8.7" height="47.7"/>
	<path d="M634.9,271.4l-43.2,11.5l-1.5-5.5l43.2-11.5L634.9,271.4 M638.6,273.6l-3-11.3l-49,13l3,11.3L638.6,273.6L638.6,273.6z"/>
</g>
<g>
	
		<rect x="575.6" y="250.6" transform="matrix(-0.2572 -0.9664 0.9664 -0.2572 463.9523 905.4923)" fill="#4A494A" width="8.7" height="47.7"/>
	<path d="M602.3,271.4l-43.2,11.5l-1.5-5.5l43.2-11.5L602.3,271.4 M606,273.6l-3-11.3l-49,13l3,11.3L606,273.6L606,273.6z"/>
</g>
<g>
	
		<rect x="543.1" y="250.6" transform="matrix(-0.2572 -0.9664 0.9664 -0.2572 422.9839 874.0005)" fill="#4A494A" width="8.7" height="47.7"/>
	<path d="M569.7,271.4l-43.2,11.5l-1.5-5.5l43.2-11.5L569.7,271.4 M573.4,273.6l-3-11.3l-49,13l3,11.3L573.4,273.6L573.4,273.6z"/>
</g>
<g>
	
		<rect x="510.5" y="250.6" transform="matrix(-0.2572 -0.9664 0.9664 -0.2572 382.0155 842.5087)" fill="#4A494A" width="8.7" height="47.7"/>
	<path d="M537.2,271.4L494,282.9l-1.5-5.5l43.2-11.5L537.2,271.4 M540.8,273.6l-3-11.3l-49,13l3,11.3L540.8,273.6L540.8,273.6z"/>
</g>
<g>
	
		<rect x="477.9" y="250.6" transform="matrix(-0.2572 -0.9664 0.9664 -0.2572 341.0471 811.0167)" fill="#4A494A" width="8.7" height="47.7"/>
	<path d="M504.6,271.4l-43.2,11.5l-1.5-5.5l43.2-11.5L504.6,271.4 M508.2,273.6l-3-11.3l-49,13l3,11.3L508.2,273.6L508.2,273.6z"/>
</g>
<g>
	
		<rect x="445.3" y="250.6" transform="matrix(-0.2572 -0.9664 0.9664 -0.2572 300.0787 779.5249)" fill="#4A494A" width="8.7" height="47.7"/>
	<path d="M472,271.4l-43.2,11.5l-1.5-5.5l43.2-11.5L472,271.4 M475.6,273.6l-3-11.3l-49,13l3,11.3L475.6,273.6L475.6,273.6z"/>
</g>
<g>
	
		<rect x="412.7" y="250.6" transform="matrix(-0.2572 -0.9664 0.9664 -0.2572 259.1103 748.033)" fill="#4A494A" width="8.7" height="47.7"/>
	<path d="M439.4,271.4l-43.2,11.5l-1.5-5.5l43.2-11.5L439.4,271.4 M443.1,273.6l-3-11.3l-49,13l3,11.3L443.1,273.6L443.1,273.6z"/>
</g>
<g>
	
		<rect x="380.1" y="250.6" transform="matrix(-0.2572 -0.9664 0.9664 -0.2572 218.1419 716.5411)" fill="#4A494A" width="8.7" height="47.7"/>
	<path d="M406.8,271.4l-43.2,11.5l-1.5-5.5l43.2-11.5L406.8,271.4 M410.5,273.6l-3-11.3l-49,13l3,11.3L410.5,273.6L410.5,273.6z"/>
</g>
<g>
	
		<rect x="347.5" y="250.6" transform="matrix(-0.2572 -0.9664 0.9664 -0.2572 177.1735 685.0493)" fill="#4A494A" width="8.7" height="47.7"/>
	<path d="M374.2,271.4L331,282.9l-1.5-5.5l43.2-11.5L374.2,271.4 M377.9,273.6l-3-11.3l-49,13l3,11.3L377.9,273.6L377.9,273.6z"/>
</g>
<g>
	
		<rect x="314.9" y="250.6" transform="matrix(-0.2572 -0.9664 0.9664 -0.2572 136.2051 653.5574)" fill="#4A494A" width="8.7" height="47.7"/>
	<path d="M341.6,271.4l-43.2,11.5l-1.5-5.5l43.2-11.5L341.6,271.4 M345.3,273.6l-3-11.3l-49,13l3,11.3L345.3,273.6L345.3,273.6z"/>
</g>
<g>
	
		<rect x="282.4" y="250.6" transform="matrix(-0.2572 -0.9664 0.9664 -0.2572 95.2367 622.0656)" fill="#4A494A" width="8.7" height="47.7"/>
	<path d="M309,271.4l-43.2,11.5l-1.5-5.5l43.2-11.5L309,271.4 M312.7,273.6l-3-11.3l-49,13l3,11.3L312.7,273.6L312.7,273.6z"/>
</g>
<g>
	
		<rect x="249.8" y="250.6" transform="matrix(-0.2572 -0.9664 0.9664 -0.2572 54.2682 590.5737)" fill="#4A494A" width="8.7" height="47.7"/>
	<path d="M276.4,271.4l-43.2,11.5l-1.5-5.5l43.2-11.5L276.4,271.4 M280.1,273.6l-3-11.3l-49,13l3,11.3L280.1,273.6L280.1,273.6z"/>
</g>
<g>
	
		<rect x="217.2" y="250.6" transform="matrix(-0.2572 -0.9664 0.9664 -0.2572 13.2999 559.0818)" fill="#4A494A" width="8.7" height="47.7"/>
	<path d="M243.9,271.4l-43.2,11.5l-1.5-5.5l43.2-11.5L243.9,271.4 M247.5,273.6l-3-11.3l-49,13l3,11.3L247.5,273.6L247.5,273.6z"/>
</g>
<g>
	
		<rect x="184.6" y="250.6" transform="matrix(-0.2572 -0.9664 0.9664 -0.2572 -27.6686 527.59)" fill="#4A494A" width="8.7" height="47.7"/>
	<path d="M211.3,271.4l-43.2,11.5l-1.5-5.5l43.2-11.5L211.3,271.4 M214.9,273.6l-3-11.3l-49,13l3,11.3L214.9,273.6L214.9,273.6z"/>
</g>
<g>
	
		<rect x="152" y="250.6" transform="matrix(-0.2572 -0.9664 0.9664 -0.2572 -68.637 496.0981)" fill="#4A494A" width="8.7" height="47.7"/>
	<path d="M178.7,271.4l-43.2,11.5l-1.5-5.5l43.2-11.5L178.7,271.4 M182.4,273.6l-3-11.3l-49,13l3,11.3L182.4,273.6L182.4,273.6z"/>
</g>
<g>
	
		<rect x="119.4" y="250.6" transform="matrix(-0.2572 -0.9664 0.9664 -0.2572 -109.6054 464.6062)" fill="#4A494A" width="8.7" height="47.7"/>
	<path d="M146.1,271.4l-43.2,11.5l-1.5-5.5l43.2-11.5L146.1,271.4 M149.8,273.6l-3-11.3l-49,13l3,11.3L149.8,273.6L149.8,273.6z"/>
</g>
<g>
	
		<rect x="86.8" y="250.6" transform="matrix(-0.2572 -0.9664 0.9664 -0.2572 -150.5738 433.1144)" fill="#4A494A" width="8.7" height="47.7"/>
	<path d="M113.5,271.4l-43.2,11.5l-1.5-5.5l43.2-11.5L113.5,271.4 M117.2,273.6l-3-11.3l-49,13l3,11.3L117.2,273.6L117.2,273.6z"/>
</g>
<g>
	
		<rect x="54.2" y="250.6" transform="matrix(-0.2572 -0.9664 0.9664 -0.2572 -191.5422 401.6225)" fill="#4A494A" width="8.7" height="47.7"/>
	<path d="M80.9,271.4l-43.2,11.5l-1.5-5.5l43.2-11.5L80.9,271.4 M84.6,273.6l-3-11.3l-49,13l3,11.3L84.6,273.6L84.6,273.6z"/>
</g>
<g>
	<rect x="1.5" y="-212.6" fill="#EA5C5A" width="1082.5" height="13.5"/>
	<path d="M1082.5-211.1v10.5H3v-10.5H1082.5 M1085.5-214.1H0v16.5h1085.5V-214.1L1085.5-214.1z"/>
</g>
<g>
	<rect x="1.5" y="-261.8" fill="#4A494A" width="8.7" height="47.7"/>
	<path d="M8.7-260.3v44.7H3v-44.7H8.7 M11.7-263.3H0v50.7h11.7V-263.3L11.7-263.3z"/>
</g>
<g>
	<rect x="34" y="-261.8" fill="#4A494A" width="8.7" height="47.7"/>
	<path d="M41.2-260.3v44.7h-5.7v-44.7H41.2 M44.2-263.3H32.5v50.7h11.7V-263.3L44.2-263.3z"/>
</g>
<g>
	<rect x="66.6" y="-261.8" fill="#4A494A" width="8.7" height="47.7"/>
	<path d="M73.7-260.3v44.7H68v-44.7H73.7 M76.7-263.3H65.1v50.7h11.7L76.7-263.3L76.7-263.3z"/>
</g>
<g>
	<rect x="99.1" y="-261.8" fill="#4A494A" width="8.7" height="47.7"/>
	<path d="M106.3-260.3v44.7h-5.7v-44.7H106.3 M109.3-263.3H97.6v50.7h11.7V-263.3L109.3-263.3z"/>
</g>
<g>
	<rect x="684.9" y="-261.8" fill="#4A494A" width="8.7" height="47.7"/>
	<path d="M692-260.3v44.7h-5.7v-44.7H692 M695-263.3h-11.7v50.7H695V-263.3L695-263.3z"/>
</g>
<g>
	<rect x="1042.8" y="-261.8" fill="#4A494A" width="8.7" height="47.7"/>
	<path d="M1050-260.3v44.7h-5.7v-44.7H1050 M1053-263.3h-11.7v50.7h11.7V-263.3L1053-263.3z"/>
</g>
<g>
	<rect x="652.3" y="-261.8" fill="#4A494A" width="8.7" height="47.7"/>
	<path d="M659.5-260.3v44.7h-5.7v-44.7H659.5 M662.5-263.3h-11.7v50.7h11.7V-263.3L662.5-263.3z"/>
</g>
<g>
	<rect x="619.8" y="-261.8" fill="#4A494A" width="8.7" height="47.7"/>
	<path d="M627-260.3v44.7h-5.7v-44.7H627 M630-263.3h-11.7v50.7H630V-263.3L630-263.3z"/>
</g>
<g>
	<rect x="587.2" y="-261.8" fill="#4A494A" width="8.7" height="47.7"/>
	<path d="M594.4-260.3v44.7h-5.7v-44.7H594.4 M597.4-263.3h-11.7v50.7h11.7V-263.3L597.4-263.3z"/>
</g>
<g>
	<rect x="554.7" y="-261.8" fill="#4A494A" width="8.7" height="47.7"/>
	<path d="M561.9-260.3v44.7h-5.7v-44.7H561.9 M564.9-263.3h-11.7v50.7h11.7V-263.3L564.9-263.3z"/>
</g>
<g>
	<rect x="522.2" y="-261.8" fill="#4A494A" width="8.7" height="47.7"/>
	<path d="M529.3-260.3v44.7h-5.7v-44.7H529.3 M532.3-263.3h-11.7v50.7h11.7V-263.3L532.3-263.3z"/>
</g>
<g>
	<rect x="489.6" y="-261.8" fill="#4A494A" width="8.7" height="47.7"/>
	<path d="M496.8-260.3v44.7h-5.7v-44.7H496.8 M499.8-263.3h-11.7v50.7h11.7V-263.3L499.8-263.3z"/>
</g>
<g>
	<rect x="457.1" y="-261.8" fill="#4A494A" width="8.7" height="47.7"/>
	<path d="M464.2-260.3v44.7h-5.7v-44.7H464.2 M467.2-263.3h-11.7v50.7h11.7V-263.3L467.2-263.3z"/>
</g>
<g>
	<rect x="1010.3" y="-261.8" fill="#4A494A" width="8.7" height="47.7"/>
	<path d="M1017.5-260.3v44.7h-5.7v-44.7H1017.5 M1020.5-263.3h-11.7v50.7h11.7V-263.3L1020.5-263.3z"/>
</g>
<g>
	<rect x="424.5" y="-261.8" fill="#4A494A" width="8.7" height="47.7"/>
	<path d="M431.7-260.3v44.7H426v-44.7H431.7 M434.7-263.3H423v50.7h11.7V-263.3L434.7-263.3z"/>
</g>
<g>
	<rect x="977.7" y="-261.8" fill="#4A494A" width="8.7" height="47.7"/>
	<path d="M984.9-260.3v44.7h-5.7v-44.7H984.9 M987.9-263.3h-11.7v50.7h11.7V-263.3L987.9-263.3z"/>
</g>
<g>
	<rect x="392" y="-261.8" fill="#4A494A" width="8.7" height="47.7"/>
	<path d="M399.2-260.3v44.7h-5.7v-44.7H399.2 M402.2-263.3h-11.7v50.7h11.7V-263.3L402.2-263.3z"/>
</g>
<g>
	<rect x="945.2" y="-261.8" fill="#4A494A" width="8.7" height="47.7"/>
	<path d="M952.4-260.3v44.7h-5.7v-44.7H952.4 M955.4-263.3h-11.7v50.7h11.7V-263.3L955.4-263.3z"/>
</g>
<g>
	<rect x="359.5" y="-261.8" fill="#4A494A" width="8.7" height="47.7"/>
	<path d="M366.6-260.3v44.7H361v-44.7H366.6 M369.6-263.3H358v50.7h11.7v-50.7H369.6z"/>
</g>
<g>
	<rect x="912.7" y="-261.8" fill="#4A494A" width="8.7" height="47.7"/>
	<path d="M919.8-260.3v44.7h-5.7v-44.7H919.8 M922.8-263.3h-11.7v50.7h11.7V-263.3L922.8-263.3z"/>
</g>
<g>
	<rect x="326.9" y="-261.8" fill="#4A494A" width="8.7" height="47.7"/>
	<path d="M334.1-260.3v44.7h-5.7v-44.7H334.1 M337.1-263.3h-11.7v50.7h11.7V-263.3L337.1-263.3z"/>
</g>
<g>
	<rect x="880.1" y="-261.8" fill="#4A494A" width="8.7" height="47.7"/>
	<path d="M887.3-260.3v44.7h-5.7v-44.7H887.3 M890.3-263.3h-11.7v50.7h11.7V-263.3L890.3-263.3z"/>
</g>
<g>
	<rect x="294.4" y="-261.8" fill="#4A494A" width="8.7" height="47.7"/>
	<path d="M301.5-260.3v44.7h-5.7v-44.7H301.5 M304.5-263.3h-11.7v50.7h11.7V-263.3L304.5-263.3z"/>
</g>
<g>
	<rect x="847.6" y="-261.8" fill="#4A494A" width="8.7" height="47.7"/>
	<path d="M854.7-260.3v44.7H849v-44.7H854.7 M857.7-263.3H846v50.7h11.7V-263.3L857.7-263.3z"/>
</g>
<g>
	<rect x="261.8" y="-261.8" fill="#4A494A" width="8.7" height="47.7"/>
	<path d="M269-260.3v44.7h-5.7v-44.7H269 M272-263.3h-11.7v50.7H272V-263.3L272-263.3z"/>
</g>
<g>
	<rect x="815" y="-261.8" fill="#4A494A" width="8.7" height="47.7"/>
	<path d="M822.2-260.3v44.7h-5.7v-44.7H822.2 M825.2-263.3h-11.7v50.7h11.7V-263.3L825.2-263.3z"/>
</g>
<g>
	<rect x="229.3" y="-261.8" fill="#4A494A" width="8.7" height="47.7"/>
	<path d="M236.5-260.3v44.7h-5.7v-44.7H236.5 M239.5-263.3h-11.7v50.7h11.7V-263.3L239.5-263.3z"/>
</g>
<g>
	<rect x="782.5" y="-261.8" fill="#4A494A" width="8.7" height="47.7"/>
	<path d="M789.7-260.3v44.7H784v-44.7H789.7 M792.7-263.3H781v50.7h11.7V-263.3L792.7-263.3z"/>
</g>
<g>
	<rect x="196.8" y="-261.8" fill="#4A494A" width="8.7" height="47.7"/>
	<path d="M203.9-260.3v44.7h-5.7v-44.7H203.9 M206.9-263.3h-11.7v50.7h11.7V-263.3L206.9-263.3z"/>
</g>
<g>
	<rect x="750" y="-261.8" fill="#4A494A" width="8.7" height="47.7"/>
	<path d="M757.1-260.3v44.7h-5.7v-44.7H757.1 M760.1-263.3h-11.7v50.7h11.7V-263.3L760.1-263.3z"/>
</g>
<g>
	<rect x="164.2" y="-261.8" fill="#4A494A" width="8.7" height="47.7"/>
	<path d="M171.4-260.3v44.7h-5.7v-44.7H171.4 M174.4-263.3h-11.7v50.7h11.7V-263.3L174.4-263.3z"/>
</g>
<g>
	<rect x="717.4" y="-261.8" fill="#4A494A" width="8.7" height="47.7"/>
	<path d="M724.6-260.3v44.7h-5.7v-44.7H724.6 M727.6-263.3h-11.7v50.7h11.7V-263.3L727.6-263.3z"/>
</g>
<g>
	<rect x="131.7" y="-261.8" fill="#4A494A" width="8.7" height="47.7"/>
	<path d="M138.8-260.3v44.7h-5.7v-44.7H138.8 M141.8-263.3h-11.7v50.7h11.7V-263.3L141.8-263.3z"/>
</g>
<g>
	<rect x="1075.4" y="-261.8" fill="#4A494A" width="8.7" height="47.7"/>
	<path d="M1082.5-260.3v44.7h-5.7v-44.7H1082.5 M1085.5-263.3h-11.7v50.7h11.7V-263.3L1085.5-263.3z"/>
</g>
<rect x="0" y="-197.6" opacity="5.000000e-02" enable-background="new    " width="1085.5" height="64.7"/>
<rect x="0" y="-500" fill="none" width="1084" height="500"/>
</svg>
