<?xml version="1.0" encoding="utf-8"?>
<!-- Generator: Adobe Illustrator 16.0.0, SVG Export Plug-In . SVG Version: 6.00 Build 0)  -->
<!DOCTYPE svg PUBLIC "-//W3C//DTD SVG 1.1//EN" "http://www.w3.org/Graphics/SVG/1.1/DTD/svg11.dtd">
<svg version="1.1" id="Layer_1" xmlns="http://www.w3.org/2000/svg" xmlns:xlink="http://www.w3.org/1999/xlink" x="0px" y="0px"
	 width="946.7px" height="500px" viewBox="0 0 946.7 500" enable-background="new 0 0 946.7 500" xml:space="preserve">
<g>
	<g>
		<rect x="17.8" y="195.9" fill="#4A494A" width="24.9" height="75"/>
		<g>
			<path d="M41.2,197.4v72H19.3v-72H41.2 M44.2,194.4H16.3v78h27.9V194.4L44.2,194.4z"/>
		</g>
	</g>
	<g>
		<rect x="1.5" y="213.2" fill="#71BF46" width="16" height="40.3"/>
		<g>
			<path d="M16,214.7V252H3v-37.3H16 M19,211.7H0V255h19V211.7L19,211.7z"/>
		</g>
	</g>
	<g>
		<g>
			<rect x="51.2" y="345.8" fill="#EA5C5A" width="138" height="13.5"/>
			<path d="M187.8,347.3v10.5h-135v-10.5H187.8 M190.8,344.3h-141v16.5h141V344.3L190.8,344.3z"/>
		</g>
		<rect x="49.7" y="361.6" opacity="5.000000e-02" width="141" height="64.7"/>
		<g>
			<circle fill="#ABABAB" stroke="#000000" stroke-width="3" stroke-miterlimit="10" cx="169.4" cy="118.7" r="42.6"/>
			<g>
				<g>
					<circle fill="#1BBDE6" stroke="#000000" stroke-width="3" stroke-miterlimit="10" cx="183.3" cy="104.2" r="7.4"/>
					<circle fill="#1BBDE6" stroke="#000000" stroke-width="3" stroke-miterlimit="10" cx="155.5" cy="104.2" r="7.4"/>
				</g>
				<g>
					<circle fill="#1BBDE6" stroke="#000000" stroke-width="3" stroke-miterlimit="10" cx="183.3" cy="133.2" r="7.4"/>
					<circle fill="#1BBDE6" stroke="#000000" stroke-width="3" stroke-miterlimit="10" cx="155.5" cy="133.2" r="7.4"/>
				</g>
			</g>
		</g>
		<g>
			<circle fill="#ABABAB" stroke="#000000" stroke-width="3" stroke-miterlimit="10" cx="69.8" cy="118.6" r="42.6"/>
			<g>
				<g>
					<circle fill="#1BBDE6" stroke="#000000" stroke-width="3" stroke-miterlimit="10" cx="83.7" cy="104.1" r="7.4"/>
					<circle fill="#1BBDE6" stroke="#000000" stroke-width="3" stroke-miterlimit="10" cx="55.9" cy="104.1" r="7.4"/>
				</g>
				<g>
					<circle fill="#1BBDE6" stroke="#000000" stroke-width="3" stroke-miterlimit="10" cx="83.7" cy="133.1" r="7.4"/>
					<circle fill="#1BBDE6" stroke="#000000" stroke-width="3" stroke-miterlimit="10" cx="55.9" cy="133.1" r="7.4"/>
				</g>
			</g>
		</g>
		<rect x="153.7" y="161.3" fill="#4A494A" stroke="#000000" stroke-width="3" stroke-miterlimit="10" width="31.3" height="15.8"/>
		<rect x="53" y="161.3" fill="#4A494A" stroke="#000000" stroke-width="3" stroke-miterlimit="10" width="31.3" height="15.8"/>
		<line fill="none" stroke="#000000" stroke-width="3" stroke-miterlimit="10" x1="171.6" y1="161.3" x2="66.8" y2="161.3"/>
		<path fill="#ABABAB" stroke="#000000" stroke-width="3" stroke-miterlimit="10" d="M41.1,278.9c0,6,4.8,10.8,10.8,10.8h134.8
			c6,0,10.8-4.8,10.8-10.8v-91.1c0-6-4.8-10.8-10.8-10.8H51.9c-6,0-10.8,4.8-10.8,10.8V278.9z"/>
		<line fill="none" stroke="#000000" stroke-width="3" stroke-miterlimit="10" x1="169.4" y1="76.2" x2="70.4" y2="76.2"/>
		
			<line fill="none" stroke="#000000" stroke-width="3" stroke-linecap="round" stroke-miterlimit="10" x1="184.9" y1="204" x2="51.2" y2="204"/>
		
			<line fill="none" stroke="#000000" stroke-width="3" stroke-linecap="round" stroke-miterlimit="10" x1="169.4" y1="161.3" x2="169.4" y2="118.7"/>
		
			<line fill="none" stroke="#000000" stroke-width="3" stroke-linecap="round" stroke-miterlimit="10" x1="69" y1="162" x2="69" y2="117.2"/>
		<circle fill="#71BF46" stroke="#000000" stroke-width="3" stroke-miterlimit="10" cx="143" cy="236.2" r="8.2"/>
		<circle fill="#EB5D54" stroke="#000000" stroke-width="3" stroke-miterlimit="10" cx="143" cy="260.2" r="8.2"/>
		<rect x="83.7" y="289.7" fill="#4A494A" stroke="#000000" stroke-width="3" stroke-miterlimit="10" width="70" height="54.5"/>
		<rect x="58" y="223.9" fill="none" stroke="#000000" stroke-width="3" stroke-miterlimit="10" width="64.1" height="47.9"/>
		<rect x="73.9" y="239.2" fill="#1BBDE6" stroke="#000000" stroke-width="3" stroke-miterlimit="10" width="32.4" height="17.4"/>
		<rect x="197.5" y="204" fill="#ABABAB" stroke="#000000" stroke-width="3" stroke-miterlimit="10" width="28.8" height="58.7"/>
		<polygon fill="#4A494A" stroke="#000000" stroke-width="3" stroke-miterlimit="10" points="226.3,262.7 258.7,289.7 258.7,177 
			226.3,204 		"/>
		<rect x="258.7" y="177" fill="#ABABAB" stroke="#000000" stroke-width="3" stroke-miterlimit="10" width="23.4" height="112.7"/>
		<line fill="none" stroke="#000000" stroke-width="3" stroke-miterlimit="10" x1="217.2" y1="215.4" x2="207" y2="215.4"/>
		<line fill="none" stroke="#000000" stroke-width="3" stroke-miterlimit="10" x1="217.2" y1="228" x2="207" y2="228"/>
		<line fill="none" stroke="#000000" stroke-width="3" stroke-miterlimit="10" x1="217.2" y1="238.8" x2="207" y2="238.8"/>
		<line fill="none" stroke="#000000" stroke-width="3" stroke-miterlimit="10" x1="217.2" y1="252" x2="207" y2="252"/>
	</g>
</g>
<rect x="436.6" y="64.9" fill="#FEDA1F" stroke="#000000" stroke-width="3" stroke-miterlimit="10" width="494.4" height="341.4"/>
<g>
	<rect x="421.9" y="51.2" fill="#EA5C5A" width="523.3" height="13.5"/>
	<path d="M943.7,52.7v10.5H423.4V52.7H943.7 M946.7,49.7H420.4v16.5h526.3V49.7L946.7,49.7z"/>
</g>
<polygon opacity="0.2" fill="#FEDA1F" points="282,289.7 436.6,406.3 436.6,64.9 282,177 "/>
</svg>
