<?xml version="1.0" encoding="utf-8"?>
<!-- Generator: Adobe Illustrator 16.0.0, SVG Export Plug-In . SVG Version: 6.00 Build 0)  -->
<!DOCTYPE svg PUBLIC "-//W3C//DTD SVG 1.1//EN" "http://www.w3.org/Graphics/SVG/1.1/DTD/svg11.dtd">
<svg version="1.1" id="Layer_1" xmlns="http://www.w3.org/2000/svg" xmlns:xlink="http://www.w3.org/1999/xlink" x="0px" y="0px"
	 width="231.2px" height="500px" viewBox="-1.5 0 231.2 500" enable-background="new -1.5 0 231.2 500" xml:space="preserve">
<g>
	<path fill="#FEDA1F" stroke="#000000" stroke-width="3" stroke-miterlimit="10" d="M228.2,251.4c0,9.2-7.3,16.7-16.4,16.7h-146
		c-9,0-16.4-7.5-16.4-16.7l0,0c0-9.2,7.3-16.7,16.4-16.7h146C220.9,234.6,228.2,242.1,228.2,251.4L228.2,251.4z"/>
	<path fill="#FEDA1F" stroke="#000000" stroke-width="3" stroke-miterlimit="10" d="M146.5,333.7h-22.7c5.5-9.7,8.7-20.8,8.7-32.8
		c0-36.6-29.7-66.2-66.2-66.2S0,264.3,0,300.9c0,36.6,29.7,66.2,66.2,66.2h80.2c9.2,0,16.7-7.5,16.7-16.7
		C163.1,341.2,155.7,333.7,146.5,333.7z"/>
	<path fill="#FEDA1F" stroke="#000000" stroke-width="3" stroke-miterlimit="10" d="M96.6,284.4c0,9.1,7.4,16.5,16.5,16.5
		c9.1,0,16.5-7.4,16.5-16.5c0-2.4-0.5-4.6-1.4-6.7"/>
	<path fill="#FEDA1F" stroke="#000000" stroke-width="3" stroke-miterlimit="10" d="M97.6,290.2c-4.3-12.9-16.5-22.3-30.9-22.3
		c-18,0-32.5,14.6-32.5,32.5"/>
	<path fill="#FEDA1F" stroke="#000000" stroke-width="3" stroke-miterlimit="10" d="M163.2,284.5c0,9-7.3,16.4-16.4,16.4H113
		c-9,0-16.4-7.3-16.4-16.4l0,0c0-9,7.3-16.4,16.4-16.4h33.9C155.9,268.1,163.2,275.5,163.2,284.5L163.2,284.5z"/>
	<path fill="#FEDA1F" stroke="#000000" stroke-width="3" stroke-miterlimit="10" d="M163.2,317.3c0,9-7.3,16.4-16.4,16.4H113
		c-9,0-16.4-7.3-16.4-16.4l0,0c0-9,7.3-16.4,16.4-16.4h33.9C155.9,300.9,163.2,308.2,163.2,317.3L163.2,317.3z"/>
	<path fill="#FEDA1F" stroke="#000000" stroke-width="3" stroke-miterlimit="10" d="M163.2,350.8c0,9-7.3,16.4-16.4,16.4H113
		c-9,0-16.4-7.3-16.4-16.4l0,0c0-9,7.3-16.4,16.4-16.4h33.9C155.9,334.4,163.2,341.7,163.2,350.8L163.2,350.8z"/>
	<circle fill="#FEDA1F" stroke="#000000" stroke-width="3" stroke-miterlimit="10" cx="113.1" cy="284.5" r="16.5"/>
	<path fill="#FEDA1F" d="M95.1,281.6c0,0,2.3,3.4,3.6,7.2c0.7,2.1,28.6-9.1,28.6-9.1s-2.1-7.3-6.1-13s-16.1-3.8-16.1-3.8l-8.4,5.2
		l-3.4,7.3L95.1,281.6z"/>
	<path fill="#FEDA1F" stroke="#000000" stroke-width="3" stroke-miterlimit="10" d="M119.9,262c0,0,9.7,14,9.7,22.1"/>
</g>
</svg>
