<?xml version="1.0" encoding="utf-8"?>
<!-- Generator: Adobe Illustrator 16.0.0, SVG Export Plug-In . SVG Version: 6.00 Build 0)  -->
<!DOCTYPE svg PUBLIC "-//W3C//DTD SVG 1.1//EN" "http://www.w3.org/Graphics/SVG/1.1/DTD/svg11.dtd">
<svg version="1.1" id="Layer_1" xmlns="http://www.w3.org/2000/svg" xmlns:xlink="http://www.w3.org/1999/xlink" x="0px" y="0px"
	 width="68.5px" height="74px" viewBox="0 0 68.5 74" enable-background="new 0 0 68.5 74" xml:space="preserve">
<g>
	
		<circle fill="#FFFFFF" stroke="#000000" stroke-width="2" stroke-linecap="round" stroke-linejoin="round" stroke-miterlimit="10" cx="34.3" cy="34.5" r="32.3"/>
	<g>
		<g>
			<path fill="#05AD68" d="M49.5,12.4c-1.6,0-3,0.9-3.6,2.4L30.3,51c-0.9,2,0.1,4.3,2.1,5.2c2,0.9,4.3-0.1,5.2-2.1l8-18.6L49.5,12.4
				z"/>
		</g>
		<g>
			<g>
				<path fill="#FFDE17" d="M14.5,72.3c-2.2,0-3.9-1.8-3.9-3.9V25.9c0-7.5,6.1-13.5,13.5-13.5c7.5,0,13.5,6.1,13.5,13.5v26.8
					c0,2.2-1.8,3.9-3.9,3.9c-2.2,0-3.9-1.8-3.9-3.9V25.9c0-3.1-2.5-5.7-5.7-5.7s-5.7,2.5-5.7,5.7v42.4
					C18.5,70.5,16.7,72.3,14.5,72.3z"/>
			</g>
		</g>
		<g>
			<path fill="#0CBDE2" d="M37.3,34.6l-7,16.4c-0.9,2,0.1,4.3,2.1,5.2c2,0.9,4.3-0.1,5.2-2.1L37.3,34.6z"/>
		</g>
		<g>
			<path fill="none" stroke="#000000" stroke-width="2" stroke-linecap="round" stroke-linejoin="round" stroke-miterlimit="10" d="
				M45.5,35.5l-8,18.6c-0.9,2-3.2,2.9-5.2,2.1c-2-0.9-2.9-3.2-2.1-5.2l15.5-36.2c0.6-1.4,2-2.4,3.6-2.4"/>
		</g>
		<circle fill="#070909" cx="33.8" cy="52.8" r="1.3"/>
		<circle fill="#CB9AC6" stroke="#000000" stroke-width="2" stroke-miterlimit="10" cx="24.2" cy="25.8" r="5.6"/>
		<g>
			<g>
				<path fill="none" stroke="#000000" stroke-width="2" stroke-miterlimit="10" d="M14.5,72.3c-2.2,0-3.9-1.8-3.9-3.9V25.9
					c0-7.5,6.1-13.5,13.5-13.5c7.5,0,13.5,6.1,13.5,13.5v26.8c0,2.2-1.8,3.9-3.9,3.9c-2.2,0-3.9-1.8-3.9-3.9V25.9
					c0-3.1-2.5-5.7-5.7-5.7s-5.7,2.5-5.7,5.7v42.4C18.5,70.5,16.7,72.3,14.5,72.3z"/>
			</g>
		</g>
		<g>
			<path fill="#6FBE44" stroke="#000000" stroke-width="2" stroke-miterlimit="10" d="M53.4,35.7V16.3c0-2.2-1.8-3.9-3.9-3.9
				s-3.9,1.8-3.9,3.9v36.4c0,2.2,1.8,3.9,3.9,3.9s3.9-1.8,3.9-3.9V35.7z"/>
		</g>
		<circle fill="#070909" cx="49.5" cy="16.4" r="1.3"/>
	</g>
</g>
</svg>
