<?xml version="1.0" encoding="utf-8"?>
<!-- Generator: Adobe Illustrator 16.0.0, SVG Export Plug-In . SVG Version: 6.00 Build 0)  -->
<!DOCTYPE svg PUBLIC "-//W3C//DTD SVG 1.1//EN" "http://www.w3.org/Graphics/SVG/1.1/DTD/svg11.dtd">
<svg version="1.1" id="Layer_1" xmlns="http://www.w3.org/2000/svg" xmlns:xlink="http://www.w3.org/1999/xlink" x="0px" y="0px"
	 width="209.5px" height="74px" viewBox="0 0 209.5 74" enable-background="new 0 0 209.5 74" xml:space="preserve">
<path fill="#FFFFFF" d="M93,13h-0.7c-0.8,0-1.5,0.5-1.8,1.2L86,25.5l-4.5-11.2c-0.3-0.7-1-1.2-1.8-1.2H79c-1.1,0-1.9,0.9-1.9,1.9V28
	c0,0.8,0.7,1.5,1.5,1.5c0.8,0,1.5-0.7,1.5-1.5v-9.9l4.1,10.1c0.3,0.8,1,1.2,1.9,1.2c0.8,0,1.5-0.5,1.9-1.2L92,18.1V28
	c0,0.8,0.7,1.5,1.5,1.5c0.8,0,1.5-0.7,1.5-1.5V14.9C95,13.9,94.1,13,93,13z"/>
<path fill="#FFFFFF" d="M112.8,26.5h-7.3v-3.9h6.5c0.8,0,1.4-0.6,1.4-1.4c0-0.8-0.6-1.4-1.4-1.4h-6.5V16h7.3c0.8,0,1.4-0.6,1.4-1.4
	c0-0.8-0.6-1.4-1.4-1.4h-8.8c-0.8,0-1.5,0.7-1.5,1.5v13.3c0,0.8,0.7,1.5,1.5,1.5h8.8c0.8,0,1.4-0.6,1.4-1.4
	C114.3,27.2,113.7,26.5,112.8,26.5z"/>
<path fill="#FFFFFF" d="M126.6,19.9c-2.2-0.5-3.5-0.9-3.5-2.1c0-1.5,1.8-2,3.4-2c1.2,0,2.3,0.2,3.3,0.6c0.2,0.1,0.4,0.1,0.5,0.1
	c0.8,0,1.4-0.7,1.4-1.4c0-0.6-0.3-1.1-0.9-1.3c-1.4-0.5-2.9-0.8-4.5-0.8c-4.3,0-6.2,2.5-6.2,5c0,3.4,3.3,4.3,5.9,4.9
	c2.1,0.5,3.4,0.9,3.4,1.9c0,0.5,0,2-3.3,2c-1.5,0-2.8-0.3-4.1-0.9c-0.2-0.1-0.4-0.1-0.6-0.1c-0.8,0-1.4,0.6-1.4,1.4
	c0,0.6,0.4,1.1,0.9,1.4c1.7,0.7,3.5,1.1,5.4,1.1c3.6,0,6.1-2,6.1-4.8C132.4,21.3,129.2,20.5,126.6,19.9z"/>
<path fill="#FFFFFF" d="M144.5,19.9c-2.2-0.5-3.5-0.9-3.5-2.1c0-1.5,1.8-2,3.4-2c1.2,0,2.3,0.2,3.3,0.6c0.2,0.1,0.4,0.1,0.5,0.1
	c0.8,0,1.4-0.7,1.4-1.4c0-0.6-0.3-1.1-0.9-1.3c-1.4-0.5-2.9-0.8-4.5-0.8c-4.3,0-6.2,2.5-6.2,5c0,3.4,3.3,4.3,5.9,4.9
	c2.1,0.5,3.4,0.9,3.4,1.9c0,0.5,0,2-3.3,2c-1.5,0-2.8-0.3-4.1-0.9c-0.2-0.1-0.4-0.1-0.6-0.1c-0.8,0-1.4,0.6-1.4,1.4
	c0,0.6,0.4,1.1,0.9,1.4c1.7,0.7,3.5,1.1,5.4,1.1c3.6,0,6.1-2,6.1-4.8C150.2,21.3,147,20.5,144.5,19.9z"/>
<path fill="#FFFFFF" d="M170.1,27.4l-5.6-13.2c-0.3-0.8-1-1.2-1.7-1.2h-0.2c-0.8,0-1.4,0.4-1.7,1.2l-5.6,13.2
	c-0.1,0.2-0.1,0.4-0.1,0.6c0,0.9,0.6,1.5,1.5,1.5c0.6,0,1.1-0.3,1.4-0.9l1.3-3.1h6.8l1.3,3.1c0.3,0.6,0.8,0.9,1.4,0.9
	c0.9,0,1.5-0.6,1.5-1.5C170.3,27.8,170.2,27.6,170.1,27.4z M164.9,22.7h-4.4l2.2-5.3L164.9,22.7z"/>
<path fill="#FFFFFF" d="M188.1,20h-4.3c-0.8,0-1.4,0.6-1.4,1.4c0,0.8,0.6,1.4,1.4,1.4h3.1V26c-1,0.5-2.1,0.8-3.3,0.8
	c-3.3,0-5.5-2.1-5.5-5.5s2.1-5.5,5.3-5.5c1.4,0,2.7,0.4,4.1,1.2c0.2,0.1,0.4,0.2,0.7,0.2c0.8,0,1.4-0.6,1.4-1.4c0-0.6-0.4-1-0.7-1.2
	c-1.3-0.8-3-1.7-5.7-1.7c-4.7,0-8.1,3.5-8.1,8.4c0,4.9,3.4,8.3,8.2,8.3c1.8,0,3.5-0.4,5.2-1.3c0.7-0.3,1.1-1,1.1-1.8v-5
	C189.6,20.7,188.9,20,188.1,20z"/>
<path fill="#FFFFFF" d="M207,26.5h-7.3v-3.9h6.5c0.8,0,1.4-0.6,1.4-1.4c0-0.8-0.6-1.4-1.4-1.4h-6.5V16h7.3c0.8,0,1.4-0.6,1.4-1.4
	c0-0.8-0.6-1.4-1.4-1.4h-8.8c-0.8,0-1.5,0.7-1.5,1.5v13.3c0,0.8,0.7,1.5,1.5,1.5h8.8c0.8,0,1.4-0.6,1.4-1.4
	C208.4,27.2,207.8,26.5,207,26.5z"/>
<path fill="#FFFFFF" d="M93,39.3h-0.7c-0.8,0-1.5,0.5-1.8,1.2L86,51.7l-4.5-11.2c-0.3-0.7-1-1.2-1.8-1.2H79c-1.1,0-1.9,0.9-1.9,1.9
	v13.1c0,0.8,0.7,1.5,1.5,1.5c0.8,0,1.5-0.7,1.5-1.5v-9.9l4.1,10.1c0.3,0.8,1,1.2,1.9,1.2c0.8,0,1.5-0.5,1.9-1.2L92,44.4v9.9
	c0,0.8,0.7,1.5,1.5,1.5c0.8,0,1.5-0.7,1.5-1.5V41.2C95,40.1,94.1,39.3,93,39.3z"/>
<path fill="#FFFFFF" d="M116,53.7l-5.6-13.2c-0.3-0.8-1-1.2-1.7-1.2h-0.2c-0.8,0-1.4,0.4-1.7,1.2l-5.6,13.2
	c-0.1,0.2-0.1,0.4-0.1,0.6c0,0.9,0.6,1.5,1.5,1.5c0.6,0,1.1-0.3,1.4-0.9l1.3-3.1h6.8l1.3,3.1c0.3,0.6,0.8,0.9,1.4,0.9
	c0.9,0,1.5-0.6,1.5-1.5C116.2,54.1,116.1,53.9,116,53.7z M110.8,48.9h-4.4l2.2-5.3L110.8,48.9z"/>
<path fill="#FFFFFF" d="M133.8,51.9c-0.1,0-0.4,0-0.6,0.1c-1.1,0.6-2.2,1-3.8,1c-3.3,0-5.4-2.1-5.4-5.5s2.1-5.5,5.4-5.5
	c1.6,0,2.7,0.4,3.8,1c0.2,0.1,0.5,0.1,0.6,0.1c0.4,0,0.8-0.1,1-0.4c0.2-0.3,0.4-0.6,0.4-1c0-0.6-0.3-0.9-0.7-1.2
	c-1.2-0.7-2.8-1.4-5.2-1.4c-4.8,0-8.2,3.4-8.2,8.4s3.4,8.4,8.2,8.4c2.4,0,4-0.7,5.2-1.4c0.5-0.3,0.7-0.6,0.7-1.2
	c0-0.4-0.1-0.7-0.4-1C134.5,52,134.2,51.9,133.8,51.9z"/>
<path fill="#FFFFFF" d="M153.4,39.3c-0.8,0-1.5,0.7-1.5,1.5v5.3h-7.3v-5.3c0-0.8-0.7-1.5-1.5-1.5c-0.8,0-1.5,0.7-1.5,1.5v13.5
	c0,0.8,0.7,1.5,1.5,1.5c0.8,0,1.5-0.7,1.5-1.5V49h7.3v5.3c0,0.8,0.7,1.5,1.5,1.5c0.8,0,1.5-0.7,1.5-1.5V40.8
	C154.9,40,154.2,39.3,153.4,39.3z"/>
<path fill="#FFFFFF" d="M164,39.3c-0.8,0-1.5,0.7-1.5,1.5v13.5c0,0.8,0.7,1.5,1.5,1.5c0.8,0,1.5-0.7,1.5-1.5V40.8
	C165.5,40,164.8,39.3,164,39.3z"/>
<path fill="#FFFFFF" d="M185.9,39.3c-0.8,0-1.5,0.7-1.5,1.5V51l-7.5-10.9c-0.4-0.5-1-0.9-1.6-0.9H175c-1.1,0-1.9,0.9-1.9,1.9v13.1
	c0,0.8,0.7,1.5,1.5,1.5c0.8,0,1.5-0.7,1.5-1.5V44l7.6,10.9c0.4,0.5,0.9,0.8,1.6,0.8h0.3c1.1,0,1.9-0.9,1.9-1.9V40.8
	C187.5,40,186.8,39.3,185.9,39.3z"/>
<path fill="#FFFFFF" d="M205.4,52.8h-7.3v-3.9h6.5c0.8,0,1.4-0.6,1.4-1.4c0-0.8-0.6-1.4-1.4-1.4h-6.5v-3.8h7.3
	c0.8,0,1.4-0.6,1.4-1.4c0-0.8-0.6-1.4-1.4-1.4h-8.8c-0.8,0-1.5,0.7-1.5,1.5v13.3c0,0.8,0.7,1.5,1.5,1.5h8.8c0.8,0,1.4-0.6,1.4-1.4
	C206.8,53.4,206.2,52.8,205.4,52.8z"/>
<g>
	
		<circle fill="#FFFFFF" stroke="#000000" stroke-width="2" stroke-linecap="round" stroke-linejoin="round" stroke-miterlimit="10" cx="34.3" cy="34.5" r="32.3"/>
	<g>
		<g>
			<path fill="#05AD68" d="M49.5,12.4c-1.6,0-3,0.9-3.6,2.4L30.3,51c-0.9,2,0.1,4.3,2.1,5.2c2,0.9,4.3-0.1,5.2-2.1l8-18.6L49.5,12.4
				z"/>
		</g>
		<g>
			<g>
				<path fill="#FFDE17" d="M14.5,72.3c-2.2,0-3.9-1.8-3.9-3.9V25.9c0-7.5,6.1-13.5,13.5-13.5c7.5,0,13.5,6.1,13.5,13.5v26.8
					c0,2.2-1.8,3.9-3.9,3.9c-2.2,0-3.9-1.8-3.9-3.9V25.9c0-3.1-2.5-5.7-5.7-5.7s-5.7,2.5-5.7,5.7v42.4
					C18.5,70.5,16.7,72.3,14.5,72.3z"/>
			</g>
		</g>
		<g>
			<path fill="#0CBDE2" d="M37.3,34.6l-7,16.4c-0.9,2,0.1,4.3,2.1,5.2c2,0.9,4.3-0.1,5.2-2.1L37.3,34.6z"/>
		</g>
		<g>
			<path fill="none" stroke="#000000" stroke-width="2" stroke-linecap="round" stroke-linejoin="round" stroke-miterlimit="10" d="
				M45.5,35.5l-8,18.6c-0.9,2-3.2,2.9-5.2,2.1c-2-0.9-2.9-3.2-2.1-5.2l15.5-36.2c0.6-1.4,2-2.4,3.6-2.4"/>
		</g>
		<circle fill="#070909" cx="33.8" cy="52.8" r="1.3"/>
		<circle fill="#CB9AC6" stroke="#000000" stroke-width="2" stroke-miterlimit="10" cx="24.2" cy="25.8" r="5.6"/>
		<g>
			<g>
				<path fill="none" stroke="#000000" stroke-width="2" stroke-miterlimit="10" d="M14.5,72.3c-2.2,0-3.9-1.8-3.9-3.9V25.9
					c0-7.5,6.1-13.5,13.5-13.5c7.5,0,13.5,6.1,13.5,13.5v26.8c0,2.2-1.8,3.9-3.9,3.9c-2.2,0-3.9-1.8-3.9-3.9V25.9
					c0-3.1-2.5-5.7-5.7-5.7s-5.7,2.5-5.7,5.7v42.4C18.5,70.5,16.7,72.3,14.5,72.3z"/>
			</g>
		</g>
		<g>
			<path fill="#6FBE44" stroke="#000000" stroke-width="2" stroke-miterlimit="10" d="M53.4,35.7V16.3c0-2.2-1.8-3.9-3.9-3.9
				s-3.9,1.8-3.9,3.9v36.4c0,2.2,1.8,3.9,3.9,3.9s3.9-1.8,3.9-3.9V35.7z"/>
		</g>
		<circle fill="#070909" cx="49.5" cy="16.4" r="1.3"/>
	</g>
</g>
</svg>
