<?xml version="1.0" encoding="utf-8"?>
<!-- Generator: Adobe Illustrator 16.0.0, SVG Export Plug-In . SVG Version: 6.00 Build 0)  -->
<!DOCTYPE svg PUBLIC "-//W3C//DTD SVG 1.1//EN" "http://www.w3.org/Graphics/SVG/1.1/DTD/svg11.dtd">
<svg version="1.1" id="Layer_1" xmlns="http://www.w3.org/2000/svg" xmlns:xlink="http://www.w3.org/1999/xlink" x="0px" y="0px"
	 width="200px" height="110px" viewBox="0 0 200 110" enable-background="new 0 0 200 110" xml:space="preserve">
<g>
	<g>
		<g>
			<path fill="#4A494A" d="M122,141.2c-4.1,0-7.4-3.3-7.4-7.4V18.5c0-4.1,3.3-7.4,7.4-7.4h49.3c4.1,0,7.4,3.3,7.4,7.4v115.3
				c0,4.1-3.3,7.4-7.4,7.4H122z"/>
			<g>
				<path d="M171.3,12.2c3.5,0,6.4,2.9,6.4,6.4v115.3c0,3.5-2.9,6.4-6.4,6.4H122c-3.5,0-6.4-2.9-6.4-6.4V18.5c0-3.5,2.9-6.4,6.4-6.4
					H171.3 M171.3,10.2H122c-4.6,0-8.4,3.7-8.4,8.4v115.3c0,4.6,3.7,8.4,8.4,8.4h49.3c4.6,0,8.4-3.7,8.4-8.4V18.5
					C179.7,13.9,175.9,10.2,171.3,10.2L171.3,10.2z"/>
			</g>
		</g>
		<line fill="none" stroke="#000000" stroke-width="2" stroke-miterlimit="10" x1="119.9" y1="75.7" x2="172.7" y2="75.7"/>
		<path fill="#FFFFFF" stroke="#000000" stroke-width="2" stroke-miterlimit="10" d="M134,90.8c0-2.8-2.3-5.1-5.1-5.1l0,0
			c-2.8,0-5.1,2.3-5.1,5.1l0,0c0,2.8,2.3,5.1,5.1,5.1l0,0C131.7,95.9,134,93.6,134,90.8L134,90.8z"/>
		<path fill="#FFFFFF" stroke="#000000" stroke-width="2" stroke-miterlimit="10" d="M151.8,44.2c0-2.8-2.3-5.1-5.1-5.1l0,0
			c-2.8,0-5.1,2.3-5.1,5.1l0,0c0,2.8,2.3,5.1,5.1,5.1l0,0C149.5,49.3,151.8,47,151.8,44.2L151.8,44.2z"/>
		<path fill="#FFFFFF" stroke="#000000" stroke-width="2" stroke-miterlimit="10" d="M169.1,91c0-2.8-2.3-5.1-5.1-5.1l0,0
			c-2.8,0-5.1,2.3-5.1,5.1l0,0c0,2.8,2.3,5.1,5.1,5.1l0,0C166.8,96.2,169.1,93.9,169.1,91L169.1,91z"/>
		<path fill="#FFFFFF" stroke="#000000" stroke-width="2" stroke-miterlimit="10" d="M133.8,128.6c0-2.8-2.3-5.1-5.1-5.1l0,0
			c-2.8,0-5.1,2.3-5.1,5.1l0,0c0,2.8,2.3,5.1,5.1,5.1l0,0C131.5,133.7,133.8,131.4,133.8,128.6L133.8,128.6z"/>
		<path fill="#FFFFFF" stroke="#000000" stroke-width="2" stroke-miterlimit="10" d="M169.4,128.6c0-2.8-2.3-5.1-5.1-5.1l0,0
			c-2.8,0-5.1,2.3-5.1,5.1l0,0c0,2.8,2.3,5.1,5.1,5.1l0,0C167.1,133.7,169.4,131.4,169.4,128.6L169.4,128.6z"/>
		<path fill="#FFFFFF" stroke="#000000" stroke-width="2" stroke-miterlimit="10" d="M151.6,109.6c0-2.8-2.3-5.1-5.1-5.1l0,0
			c-2.8,0-5.1,2.3-5.1,5.1l0,0c0,2.8,2.3,5.1,5.1,5.1l0,0C149.3,114.8,151.6,112.5,151.6,109.6L151.6,109.6z"/>
	</g>
	<g>
		<g>
			<path fill="#4A494A" d="M59,150.5c-1.6,0-3.1-0.5-4.4-1.5L15,119.6c-1.6-1.2-2.6-2.9-2.9-4.8c-0.3-1.9,0.2-3.9,1.4-5.5l68.8-92.5
				c1.4-1.9,3.6-3,5.9-3c1.6,0,3.1,0.5,4.4,1.5l39.6,29.4c1.6,1.2,2.6,2.9,2.9,4.8c0.3,1.9-0.2,3.9-1.4,5.5l-68.8,92.5
				C63.5,149.4,61.3,150.5,59,150.5z"/>
			<g>
				<path d="M88.2,14.8L88.2,14.8c1.4,0,2.7,0.4,3.8,1.3l39.6,29.4c1.4,1,2.3,2.5,2.5,4.2c0.2,1.7-0.2,3.4-1.2,4.7l-68.8,92.5
					c-1.2,1.6-3.1,2.6-5.1,2.6c-1.4,0-2.7-0.4-3.8-1.3l-39.6-29.4c-1.4-1-2.3-2.5-2.5-4.2c-0.2-1.7,0.2-3.4,1.2-4.7l68.8-92.5
					C84.3,15.8,86.1,14.8,88.2,14.8 M88.2,12.8c-2.6,0-5.1,1.2-6.7,3.4l-68.8,92.5c-2.8,3.7-2,8.9,1.7,11.7L54,149.8
					c1.5,1.1,3.2,1.7,5,1.7c2.6,0,5.1-1.2,6.7-3.4l68.8-92.5c2.8-3.7,2-8.9-1.7-11.7L93.2,14.5C91.7,13.4,89.9,12.8,88.2,12.8
					L88.2,12.8z"/>
			</g>
		</g>
		<line fill="none" stroke="#000000" stroke-width="2" stroke-miterlimit="10" x1="52.4" y1="65.8" x2="94.8" y2="97.3"/>
		<path fill="#FFFFFF" stroke="#000000" stroke-width="2" stroke-miterlimit="10" d="M93.3,33.8c1.7-2.3,1.2-5.5-1.1-7.2l0,0
			c-2.3-1.7-5.5-1.2-7.2,1.1l0,0c-1.7,2.3-1.2,5.5,1.1,7.2l0,0C88.4,36.5,91.6,36.1,93.3,33.8L93.3,33.8z"/>
		<path fill="#FFFFFF" stroke="#000000" stroke-width="2" stroke-miterlimit="10" d="M121.9,55.1c1.7-2.3,1.2-5.5-1.1-7.2l0,0
			c-2.3-1.7-5.5-1.2-7.2,1.1l0,0c-1.7,2.3-1.2,5.5,1.1,7.2l0,0C117,57.8,120.3,57.3,121.9,55.1L121.9,55.1z"/>
		<path fill="#FFFFFF" stroke="#000000" stroke-width="2" stroke-miterlimit="10" d="M71.2,64.1c1.7-2.3,1.2-5.5-1.1-7.2l0,0
			c-2.3-1.7-5.5-1.2-7.2,1.1l0,0c-1.7,2.3-1.2,5.5,1.1,7.2l0,0C66.3,66.9,69.5,66.4,71.2,64.1L71.2,64.1z"/>
		<path fill="#FFFFFF" stroke="#000000" stroke-width="2" stroke-miterlimit="10" d="M99.8,85.4c1.7-2.3,1.2-5.5-1.1-7.2l0,0
			c-2.3-1.7-5.5-1.2-7.2,1.1l0,0c-1.7,2.3-1.2,5.5,1.1,7.2l0,0C94.9,88.1,98.1,87.6,99.8,85.4L99.8,85.4z"/>
		<path fill="#FFFFFF" stroke="#000000" stroke-width="2" stroke-miterlimit="10" d="M96.8,59.5c1.7-2.3,1.2-5.5-1.1-7.2l0,0
			c-2.3-1.7-5.5-1.2-7.2,1.1l0,0c-1.7,2.3-1.2,5.5,1.1,7.2l0,0C91.9,62.3,95.1,61.8,96.8,59.5L96.8,59.5z"/>
		<path fill="#FFFFFF" stroke="#000000" stroke-width="2" stroke-miterlimit="10" d="M54.1,86.2c1.7-2.3,1.2-5.5-1.1-7.2l0,0
			c-2.3-1.7-5.5-1.2-7.2,1.1l0,0c-1.7,2.3-1.2,5.5,1.1,7.2l0,0C49.2,88.9,52.4,88.5,54.1,86.2L54.1,86.2z"/>
		<path fill="#FFFFFF" stroke="#000000" stroke-width="2" stroke-miterlimit="10" d="M82.7,107.4c1.7-2.3,1.2-5.5-1.1-7.2l0,0
			c-2.3-1.7-5.5-1.2-7.2,1.1l0,0c-1.7,2.3-1.2,5.5,1.1,7.2l0,0C77.8,110.2,81,109.7,82.7,107.4L82.7,107.4z"/>
		<path fill="#FFFFFF" stroke="#000000" stroke-width="2" stroke-miterlimit="10" d="M32,116.5c1.7-2.3,1.2-5.5-1.1-7.2l0,0
			c-2.3-1.7-5.5-1.2-7.2,1.1l0,0c-1.7,2.3-1.2,5.5,1.1,7.2l0,0C27.1,119.2,30.3,118.8,32,116.5L32,116.5z"/>
		<path fill="#FFFFFF" stroke="#000000" stroke-width="2" stroke-miterlimit="10" d="M60.6,137.7c1.7-2.3,1.2-5.5-1.1-7.2l0,0
			c-2.3-1.7-5.5-1.2-7.2,1.1l0,0c-1.7,2.3-1.2,5.5,1.1,7.2l0,0C55.7,140.5,58.9,140,60.6,137.7L60.6,137.7z"/>
		<path fill="#FFFFFF" stroke="#000000" stroke-width="2" stroke-miterlimit="10" d="M43.5,101.1c1.7-2.3,1.2-5.5-1.1-7.2l0,0
			c-2.3-1.7-5.5-1.2-7.2,1.1l0,0c-1.7,2.3-1.2,5.5,1.1,7.2l0,0C38.5,103.9,41.8,103.4,43.5,101.1L43.5,101.1z"/>
		<path fill="#FFFFFF" stroke="#000000" stroke-width="2" stroke-miterlimit="10" d="M71.2,122.1c1.7-2.3,1.2-5.5-1.1-7.2l0,0
			c-2.3-1.7-5.5-1.2-7.2,1.1l0,0c-1.7,2.3-1.2,5.5,1.1,7.2l0,0C66.3,124.9,69.5,124.4,71.2,122.1L71.2,122.1z"/>
	</g>
</g>
</svg>
